/* XPM */
static char *result[] = {
/* columns rows colors chars-per-pixel */
"50 50 220 2 ",
"   c #030401",
".  c #070906",
"X  c #160B04",
"o  c #191206",
"O  c #0D1516",
"+  c #171618",
"@  c #250B04",
"#  c #370401",
"$  c #26170D",
"%  c #32260C",
"&  c #161D28",
"*  c #241E21",
"=  c #1A212A",
"-  c #362725",
";  c #2A3338",
":  c #460702",
">  c #590301",
",  c #551809",
"<  c #551C12",
"1  c #640201",
"2  c #7A1E11",
"3  c #732A0F",
"4  c #652615",
"5  c #483422",
"6  c #53372A",
"7  c #4B3D33",
"8  c #782921",
"9  c #51412C",
"0  c #644D2A",
"q  c #794129",
"w  c #76523D",
"e  c #37444C",
"r  c #2E4357",
"t  c #31495B",
"y  c #354B66",
"u  c #395064",
"i  c #424852",
"p  c #775A47",
"a  c #47617F",
"s  c #842519",
"d  c #912915",
"f  c #83321A",
"g  c #993B1C",
"h  c #A2381A",
"j  c #82332E",
"k  c #973422",
"l  c #A53923",
"z  c #9C451B",
"x  c #B64B1D",
"c  c #8B4926",
"v  c #975935",
"b  c #BB5228",
"n  c #BA4B32",
"m  c #A85136",
"M  c #A8593C",
"N  c #ED5519",
"B  c #F5561D",
"V  c #EB611D",
"C  c #C75527",
"Z  c #D85C2B",
"A  c #C6593B",
"S  c #DA5D37",
"D  c #FB4F2A",
"F  c #E85B27",
"G  c #EB5B26",
"H  c #EB5B2B",
"J  c #FE5522",
"K  c #F35B24",
"L  c #F85826",
"P  c #FC532A",
"I  c #F45C2B",
"U  c #E45D34",
"Y  c #E95839",
"T  c #F75734",
"R  c #CD672D",
"E  c #DA662C",
"W  c #CA643A",
"Q  c #DC6534",
"!  c #D86C32",
"~  c #DA643A",
"^  c #DC6A3A",
"/  c #D87236",
"(  c #E86328",
")  c #ED612B",
"_  c #E67228",
"`  c #E36637",
"'  c #EC6233",
"]  c #F16734",
"[  c #E5753B",
"{  c #E6773D",
"}  c #F2753A",
"|  c #965142",
" . c #B35947",
".. c #8C7350",
"X. c #B2624D",
"o. c #935C63",
"O. c #9E7178",
"+. c #B1756D",
"@. c #D55B47",
"#. c #E75840",
"$. c #C96B4B",
"%. c #D86847",
"&. c #C77956",
"*. c #D47052",
"=. c #D77855",
"-. c #E66947",
";. c #E17945",
":. c #EA6B53",
">. c #E37959",
",. c #CA7967",
"<. c #DC7A66",
"1. c #F17D70",
"2. c #A68458",
"3. c #BA9762",
"4. c #AA8670",
"5. c #DE854A",
"6. c #D58D5C",
"7. c #D98858",
"8. c #E8854A",
"9. c #F48546",
"0. c #F58B4F",
"q. c #EA8956",
"w. c #ED9556",
"e. c #EC965B",
"r. c #F29354",
"t. c #F49757",
"y. c #F2945C",
"u. c #F9A05F",
"i. c #CC846B",
"p. c #DA9875",
"a. c #E88563",
"s. c #E49868",
"d. c #E38671",
"f. c #D5AA73",
"g. c #FAA969",
"h. c #F9B86C",
"j. c #F8A878",
"k. c #ECB77A",
"l. c #FCB577",
"z. c #F5BB7E",
"x. c #FBBD7B",
"c. c #ECC67A",
"v. c #F6C379",
"b. c #496383",
"n. c #527398",
"m. c #62758B",
"M. c #547CA9",
"N. c #75889C",
"B. c #5C84B3",
"V. c #6390C5",
"C. c #6B9CD5",
"Z. c #6DA1DD",
"A. c #6FA4E3",
"S. c #79ABE3",
"D. c #76B2F6",
"F. c #7EB3F4",
"G. c #78B6FE",
"H. c #7DB9FE",
"J. c #8B8C94",
"K. c #BE8785",
"L. c #B39590",
"P. c #BDA19C",
"I. c #9990AC",
"U. c #999DB9",
"Y. c #A794A7",
"T. c #B29AAC",
"R. c #A49CB6",
"E. c #BEAFAD",
"W. c #CD9088",
"Q. c #E39C94",
"!. c #D4A98B",
"~. c #D2B28E",
"^. c #D8B08A",
"/. c #E9B887",
"(. c #F3BE83",
"). c #F3B98B",
"_. c #EABA99",
"`. c #F4BC9A",
"'. c #C79AA2",
"]. c #C7A5A8",
"[. c #CEB7B8",
"{. c #EAABA0",
"}. c #F3B9AD",
"|. c #E3C385",
" X c #F1C784",
".X c #F6C496",
"XX c #F6C4AF",
"oX c #E8C0B1",
"OX c #8F9EC5",
"+X c #8BABCF",
"@X c #98A3C8",
"#X c #89A9DB",
"$X c #B4B6CD",
"%X c #85ADE4",
"&X c #83B2EA",
"*X c #98B3E3",
"=X c #84B6F4",
"-X c #8BBBF5",
";X c #83BBFD",
":X c #8BBEFA",
">X c #91BCF5",
",X c #A4BFEC",
"<X c #D7BDC5",
"1X c #C5BBD0",
"2X c #9BC1ED",
"3X c #8EC0FC",
"4X c #95C3FB",
"5X c #9CC6F9",
"6X c #A5C3E7",
"7X c #B7CAEA",
"8X c #A7C7F4",
"9X c #BBD4F5",
"0X c #D9C7CA",
"qX c #D2C9D3",
"wX c #E8CDD1",
"eX c #C5CEE9",
"rX c #D4DEEE",
"tX c #C5D6F6",
"yX c #C9E0F6",
"uX c #E6E5F3",
/* pixels */
"G.G.G.G.G.G.G.G.G.G.G.G.G.G.G.G.G.G.G.G.G.G.G.G.G.G.G.G.G.G.G.G.G.G.G.G.G.G.G.G.G.G.G.G.G.G.G.G.G.G.",
"G.G.G.G.G.G.G.G.G.G.G.G.G.G.G.G.G.G.G.G.G.G.G.G.G.G.G.G.G.G.G.G.G.G.G.G.G.G.G.G.G.G.G.G.G.G.G.G.G.G.",
"G.G.G.G.G.G.G.G.G.G.G.G.G.G.G.G.G.G.G.G.G.G.G.G.G.G.G.G.G.G.G.G.G.G.G.G.G.G.G.G.G.G.G.G.G.G.G.G.G.G.",
"G.G.G.G.G.G.G.G.G.G.G.G.G.G.G.G.G.G.G.G.G.G.G.G.G.G.G.G.G.G.G.G.G.G.G.G.G.G.G.G.G.G.G.G.G.G.G.G.G.G.",
"G.G.G.G.G.G.G.G.G.G.G.G.G.G.G.G.G.G.G.G.G.G.G.G.G.G.G.G.G.G.G.G.G.G.G.G.G.G.G.G.G.G.G.G.G.G.G.G.G.G.",
"G.G.G.G.G.G.G.G.G.G.G.G.G.G.G.G.G.G.G.G.G.G.G.G.G.G.G.G.G.G.G.G.G.G.G.G.G.G.G.G.G.G.G.G.G.G.G.G.G.G.",
"G.G.G.G.G.G.G.G.G.G.G.G.G.G.G.G.G.G.G.G.G.G.G.G.G.G.G.G.G.G.G.G.G.G.G.G.G.G.G.G.G.G.G.G.G.G.G.G.G.G.",
"G.G.G.G.G.G.G.G.G.G.G.G.G.G.G.G.G.G.G.G.G.G.G.G.G.G.G.G.G.G.G.G.G.G.G.G.G.G.G.G.G.G.G.G.G.G.G.G.G.G.",
"G.G.G.G.G.G.G.G.G.G.G.G.G.G.G.G.G.G.G.G.G.G.G.G.G.G.G.G.G.G.G.G.G.G.G.G.G.G.G.G.G.G.G.G.G.G.G.G.G.G.",
"G.G.G.G.G.G.G.G.G.G.G.G.G.G.G.G.G.G.G.G.G.G.G.G.G.G.G.D.G.G.G.G.G.G.G.G.G.G.G.G.G.G.G.G.G.G.G.G.G.G.",
"G.G.G.G.G.G.G.G.G.G.G.G.G.G.G.G.G.G.G.G.G.G.G.G.G.G.G.D.G.G.G.G.G.G.G.G.G.G.G.G.G.G.G.G.G.G.G.G.G.G.",
"G.G.G.G.G.G.G.G.G.G.G.G.G.G.G.G.G.G.G.G.%X@XR.Y.Y.Y.Y.Y.Y.#XG.G.G.G.G.G.G.G.G.G.G.G.G.G.G.G.G.G.G.G.",
"G.G.G.G.G.G.G.G.G.G.G.G.G.G.G.G.G.G.G.&XOXK.,.<.:.:.%.*.$.Y.%XD.G.G.G.G.G.G.G.G.G.G.G.G.G.G.G.G.G.G.",
"G.G.G.G.G.G.G.G.G.G.G.G.G.G.G.G.G.G.=XR.W.*.@.#.Y Y ' ] ^ i.L.#XG.G.G.G.G.G.G.G.G.G.G.G.G.G.G.G.G.G.",
"G.G.G.G.G.G.G.G.G.G.G.G.G.G.G.G.G.&X@X,.%.Y Y T D T T I ( ! &.T.#XF.G.G.G.G.G.G.G.G.G.G.G.G.G.G.G.G.",
"G.G.G.G.G.G.G.G.G.G.G.G.G.G.G.G.G.U.,.*.H T T P D D P L B F ^ i.T.=XG.G.G.G.G.G.G.G.G.G.G.G.G.G.G.G.",
"G.G.G.G.G.G.G.G.G.G.G.G.G.G.G.&XU.4.%.Q ) I J P J J J J B F Q $.+.I.%XG.G.G.G.G.G.G.G.G.G.G.G.G.G.G.",
"G.G.G.G.G.G.G.G.G.G.G.G.G.G.=X@X+.M b Z ) B B B J J J B K H Z A  .X.I.=X=XG.G.G.G.G.G.G.G.G.G.G.G.G.",
"G.G.G.G.G.G.G.G.G.G.G.G.;X>XR.O.j s d x E G ) I L D L I ' Z C d s 2 o.Y.*X;XG.G.G.G.G.G.G.G.G.G.G.G.",
"G.G.G.G.G.G.G.G.G.G.G.F.*X$X4. .s s s g x C E ( F F F U ~ A l d s s | ,.T.*X-X;XG.G.G.G.G.G.G.G.G.G.",
"G.G.G.G.G.G.G.G.G.G.;X>XE.i.$.A n $.+.c 3 z b R S S A A m f s  .$.W A %.<.'.,X:XG.G.G.G.G.G.G.G.G.G.",
"G.G.G.G.G.G.G.G.G.G.-X7X'.*.S S %.7.p.q , 3 f g k l l k 8 < 4 &.e./ ` U -.W.eX5XG.G.G.G.G.G.G.G.G.G.",
"G.G.G.G.G.G.G.G.G.H.2XqXp.` ( ' ] a.p.q # : : > > 1 1 > # # , 6.t.! ( P Y d.wX8XG.G.G.G.G.G.G.G.G.G.",
"G.G.G.G.G.G.G.H.H.5X1X!.7.Q F I ] a.p.q < v v z h l x m | 4 4 7.t.E V L ] >.].$X>X:XG.G.G.G.G.G.G.G.",
"G.G.G.G.G.G.G.G.;X9X<X7./ F G K ] q.s.v c 6.5.R Z Z ~ =.p. .c 7.t._ V B K ;.,.$X9X:XG.G.G.G.G.G.G.G.",
"G.G.G.G.G.G.G.G.3XrXoX=.^ F I I K 9.l.s.6.g.w./ R E Q q.j.s.6.t.0._ V N H ~ ,.T.9X4XG.G.G.G.G.G.G.G.",
"G.G.G.G.G.G.G.G.3XrX}.=.` H T P K -.w.e.u.w.8.! Q ! Q ;.u.e.w.r.9._ G G H %.,.].tX4XG.G.G.G.G.G.G.G.",
"G.G.G.G.G.G.G.G.3XtX}.<.-.T T P T I _ { 5./ ! R / ^ R ! / [ } } ] ( I I U *.,.[.tX4XG.G.G.G.G.G.G.G.",
"G.G.G.G.G.G.G.G.;X,X1X}.1.:.#.Y U ` [ 8.t.y.e.s.e.y.0.r.t.r.0.} ` ' ` ` %.<.{.1X5X;XG.G.G.G.G.G.G.G.",
"G.G.G.G.G.G.G.G.G.G.>XwX{.1.@.n n W 8.y.g.l.x.l.l.g.l.h.h.g.u.8.;.=.>.1.1.Q.wX7XG.G.G.G.G.G.G.G.G.G.",
"G.G.G.G.G.G.G.G.G.G.>XeX<XQ.v < < v s.k.c.z.x.x.l.x.v.h.h.h.h.(.).}.}.}.XXqX,X-XG.G.G.G.G.G.G.G.G.G.",
"G.G.G.G.G.G.G.G.G.G.>XtX1XO.6 @ X 5 ..2.i.f.(.(.(.x.v.c.h.v. X/._.3.L.].0XtX;XG.G.G.G.G.G.G.G.G.G.G.",
"G.G.G.G.G.G.G.G.G.G.5XuXJ.= +   . . o % 0 3./..Xc.k. Xv.c.c.|.~.2.- - 9 U.8X=XG.G.G.G.G.G.G.G.G.G.G.",
"G.G.G.G.G.G.G.G.G.G.5XuX4.O .     . . o % 0 2.).). Xz.(. X|.f...7 O o * m.+XF.H.G.G.G.G.G.G.G.G.G.G.",
"G.G.G.G.G.G.G.G.G.G.4XyXN.; O . . . . . . o w ^.`.`././. X~.4.5 o   . O y B.F.G.G.G.G.G.G.G.G.G.G.G.",
"G.G.G.G.G.G.G.G.G.G.H.4X+XI.e O . . O . o $ p ^.`.`.`._.^...5 o .   = t M.C.D.G.G.G.G.G.G.G.G.G.G.G.",
"G.G.G.G.G.G.G.G.G.G.G.G.2X6XN.t r r t e e i N.E.[.0X0XP.4.6 X X + & y n.C.G.G.G.G.G.G.G.G.G.G.G.G.G.",
"G.G.G.G.G.G.G.G.G.G.G.G.H.;XS.S.S.S.S.S.S.Z.S.;X=X=X-XN.9 $ o + ; a B.A.D.G.G.G.G.G.G.G.G.G.G.G.G.G.",
"G.G.G.G.G.G.G.G.G.G.G.G.G.G.3X;X3XH.;XH.H.H.G.G.G.G.G.C.n.a u b.n.V.A.D.G.G.G.G.G.G.G.G.G.G.G.G.G.G.",
"G.G.G.G.G.G.G.G.G.G.G.G.G.G.G.G.G.G.G.G.G.G.G.G.G.G.G.G.G.G.G.G.H.G.G.G.G.G.G.G.G.G.G.G.G.G.G.G.G.G.",
"G.G.G.G.G.G.G.G.G.G.G.G.G.G.G.G.G.G.G.G.G.G.G.G.G.G.G.G.G.G.G.G.G.G.G.G.G.G.G.G.G.G.G.G.G.G.G.G.G.G.",
"G.G.G.G.G.G.G.G.G.G.G.G.G.G.G.G.G.G.G.G.G.G.G.G.G.G.G.G.G.G.G.G.G.G.G.G.G.G.G.G.G.G.G.G.G.G.G.G.G.G.",
"G.G.G.G.G.G.G.G.G.G.G.G.G.G.G.G.G.G.G.G.G.G.G.G.G.G.G.G.G.G.G.G.G.G.G.G.G.G.G.G.G.G.G.G.G.G.G.G.G.G.",
"G.G.G.G.G.G.G.G.G.G.G.G.G.G.G.G.G.G.G.G.G.G.G.G.G.G.G.G.G.G.G.G.G.G.G.G.G.G.G.G.G.G.G.G.G.G.G.G.G.G.",
"G.G.G.G.G.G.G.G.G.G.G.G.G.G.G.G.G.G.G.G.G.G.G.G.G.G.G.G.G.G.G.G.G.G.G.G.G.G.G.G.G.G.G.G.G.G.G.G.G.G.",
"G.G.G.G.G.G.G.G.G.G.G.G.G.G.G.G.G.G.G.G.G.G.G.G.G.G.G.G.G.G.G.G.G.G.G.G.G.G.G.G.G.G.G.G.G.G.G.G.G.G.",
"G.G.G.G.G.G.G.G.G.G.G.G.G.G.G.G.G.G.G.G.G.G.G.G.G.G.G.G.G.G.G.G.G.G.G.G.G.G.G.G.G.G.G.G.G.G.G.G.G.G.",
"G.G.G.G.G.G.G.G.G.G.G.G.G.G.G.G.G.G.G.G.G.G.G.G.G.G.G.G.G.G.G.G.G.G.G.G.G.G.G.G.G.G.G.G.G.G.G.G.G.G.",
"G.G.G.G.G.G.G.G.G.G.G.G.G.G.G.G.G.G.G.G.G.G.G.G.G.G.G.G.G.G.G.G.G.G.G.G.G.G.G.G.G.G.G.G.G.G.G.G.G.G.",
"G.G.G.G.G.G.G.G.G.G.G.G.G.G.G.G.G.G.G.G.G.G.G.G.G.G.G.G.G.G.G.G.G.G.G.G.G.G.G.G.G.G.G.G.G.G.G.G.G.G."
};
