/* XPM */
static char *result[] = {
/* columns rows colors chars-per-pixel */
"50 50 217 2 ",
"   c #030402",
".  c #070803",
"X  c #0B0B02",
"o  c #0B0B0B",
"O  c #130D04",
"+  c #0F110D",
"@  c #171309",
"#  c #181715",
"$  c #380301",
"%  c #241705",
"&  c #302310",
"*  c #33261C",
"=  c #1C2126",
"-  c #352C28",
";  c #34322C",
":  c #460702",
">  c #590301",
",  c #56180A",
"<  c #541D13",
"1  c #640201",
"2  c #4D381E",
"3  c #69280D",
"4  c #702B0E",
"5  c #782615",
"6  c #473D2E",
"7  c #742B22",
"8  c #6E3120",
"9  c #773B2A",
"0  c #654F2D",
"q  c #75653D",
"w  c #27394C",
"e  c #3A434D",
"r  c #274050",
"t  c #394655",
"y  c #3F5D7E",
"u  c #434147",
"i  c #675D5D",
"p  c #73694A",
"a  c #4D5E75",
"s  c #776E6E",
"d  c #8C230D",
"f  c #85271A",
"g  c #86321B",
"h  c #9A3A1C",
"j  c #A23A1B",
"k  c #8F362A",
"l  c #A33825",
"z  c #9E451B",
"x  c #BA491B",
"c  c #894325",
"v  c #994F28",
"b  c #BA5329",
"n  c #A44B38",
"m  c #A65A39",
"M  c #B05935",
"N  c #FF4E1B",
"B  c #F6561B",
"V  c #EC611F",
"C  c #F1611C",
"Z  c #D75C28",
"A  c #C6573C",
"S  c #D95D3A",
"D  c #ED5B25",
"F  c #EE552B",
"G  c #E35E2B",
"H  c #EE5D2A",
"J  c #F65624",
"K  c #FD5425",
"L  c #F35B25",
"P  c #FA5925",
"I  c #FA532C",
"U  c #F35B2B",
"Y  c #EA5735",
"T  c #E45E33",
"R  c #EA5C32",
"E  c #F65A33",
"W  c #CF692E",
"Q  c #DB692D",
"!  c #CA6137",
"~  c #D96738",
"^  c #D97333",
"/  c #DD733B",
"(  c #EB6327",
")  c #E3612D",
"_  c #F4632B",
"`  c #EA732B",
"'  c #E56836",
"]  c #EA653B",
"[  c #E17539",
"{  c #9F5D4A",
"}  c #B15A49",
"|  c #8E784A",
" . c #A9644F",
".. c #B56547",
"X. c #94766C",
"o. c #AF726B",
"O. c #E45F45",
"+. c #CA694C",
"@. c #DC6644",
"#. c #C87049",
"$. c #D97546",
"%. c #D86E54",
"&. c #C97958",
"*. c #D67C5B",
"=. c #E96746",
"-. c #EB704A",
";. c #E47D4D",
":. c #E87C58",
">. c #C97769",
",. c #D97667",
"<. c #C97975",
"1. c #E87D64",
"2. c #9D805E",
"3. c #A68C58",
"4. c #9D8879",
"5. c #B69671",
"6. c #D9874D",
"7. c #CD8359",
"8. c #DE9159",
"9. c #EA8848",
"0. c #F48249",
"q. c #F6924C",
"w. c #EA8757",
"e. c #EF8F51",
"r. c #E3965E",
"t. c #F29455",
"y. c #F2935B",
"u. c #F19B5B",
"i. c #D28268",
"p. c #C68579",
"a. c #DD9574",
"s. c #EF8864",
"d. c #E8996D",
"f. c #F19563",
"g. c #E48473",
"h. c #E8987A",
"j. c #CAAF7B",
"k. c #D8B97B",
"l. c #FAA769",
"z. c #F9B56D",
"x. c #EDAE71",
"c. c #F9AB7A",
"v. c #E7BD7C",
"b. c #FEB274",
"n. c #F9BB74",
"m. c #FBBD7B",
"M. c #EEC27C",
"N. c #F7C37C",
"B. c #3F6285",
"V. c #466383",
"C. c #596C80",
"Z. c #57779F",
"A. c #767A89",
"S. c #567BA5",
"D. c #5E81A9",
"F. c #6388B6",
"G. c #7196C4",
"H. c #6C9ED9",
"J. c #6BA2E1",
"K. c #7FB2ED",
"L. c #71ACF0",
"P. c #7AB3F7",
"I. c #77B5FC",
"U. c #78B6FE",
"Y. c #7DB8FD",
"T. c #B68485",
"R. c #B18B8E",
"E. c #B69787",
"W. c #8C9DB7",
"Q. c #A697AC",
"!. c #B99BA4",
"~. c #A69CB7",
"^. c #B1A1AE",
"/. c #C18B8D",
"(. c #D99E8B",
"). c #C5979A",
"_. c #CEAF89",
"`. c #D4AC88",
"'. c #E7BD84",
"]. c #F1B987",
"[. c #ECAC99",
"{. c #EBBB93",
"}. c #C69AA1",
"|. c #C5A8A7",
" X c #CAB9B8",
".X c #D6BBBE",
"XX c #E9B1AA",
"oX c #F9BCA6",
"OX c #D3C291",
"+X c #E8C285",
"@X c #F4C482",
"#X c #F1C889",
"$X c #F7C3AB",
"%X c #939EC7",
"&X c #8EA3CF",
"*X c #9CA4C8",
"=X c #B2B4CA",
"-X c #A8B7D8",
";X c #8AACE2",
":X c #84AEEA",
">X c #92AEE1",
",X c #89B3EC",
"<X c #84B6F6",
"1X c #84BBFC",
"2X c #89BDFC",
"3X c #A5BCE0",
"4X c #C9B9C5",
"5X c #BBC1DC",
"6X c #9BC3F6",
"7X c #93C3FB",
"8X c #A8CAF5",
"9X c #BAD2F5",
"0X c #D3C3D1",
"qX c #DFD4D8",
"wX c #F6C8C1",
"eX c #F3E1DF",
"rX c #CCD4E9",
/* pixels */
"U.U.U.U.U.U.U.U.U.U.U.U.U.U.U.U.U.U.U.U.U.U.U.U.U.U.U.U.U.U.U.U.U.U.U.U.U.U.U.U.U.U.U.U.I.U.U.U.U.U.",
"U.U.U.U.U.U.U.U.U.U.U.U.U.U.U.U.U.U.U.U.U.U.U.U.U.U.U.U.U.U.U.U.U.U.U.U.U.U.U.U.U.U.U.U.U.U.U.U.U.U.",
"U.U.U.U.U.U.U.U.U.U.U.U.U.U.U.U.U.U.U.U.U.U.U.U.I.U.U.U.U.U.U.U.U.U.U.U.U.U.U.U.U.U.U.U.U.U.U.U.U.U.",
"U.U.U.U.U.U.U.U.U.U.U.U.U.U.U.U.U.U.U.U.U.U.U.U.U.U.U.U.U.U.U.U.U.U.U.U.I.U.U.U.U.U.U.U.U.U.U.U.U.U.",
"U.U.U.U.U.U.U.U.U.U.U.U.U.U.U.U.U.U.U.U.U.U.U.U.U.U.U.U.U.U.U.U.U.U.U.U.U.U.U.U.U.U.U.U.U.U.U.U.U.U.",
"U.U.U.U.U.U.U.U.U.U.U.U.U.U.U.U.U.U.U.U.U.I.U.U.U.U.U.U.U.U.I.U.U.U.U.U.U.U.U.U.U.U.U.U.U.U.U.U.U.U.",
"U.U.U.U.U.U.U.U.U.U.U.U.U.U.U.U.U.U.U.U.U.U.U.U.U.U.U.U.U.U.U.U.U.U.U.U.U.U.U.U.U.I.U.U.U.U.U.U.U.U.",
"U.U.U.U.U.U.U.U.U.U.U.U.U.U.U.U.U.U.U.U.U.U.U.U.U.U.U.U.U.U.U.U.U.U.U.U.U.U.U.U.U.U.U.U.U.U.U.U.U.U.",
"U.U.U.U.U.U.U.U.U.U.U.U.U.U.U.U.U.U.U.U.U.U.I.I.U.U.U.U.U.U.U.U.U.U.U.U.U.U.U.U.U.U.U.U.U.U.U.U.U.U.",
"U.U.U.U.U.U.U.U.U.U.U.U.U.U.U.U.U.U.U.U.U.I.I.I.U.U.U.U.U.U.U.U.U.U.U.U.U.U.U.U.U.U.U.U.U.U.U.U.U.U.",
"U.U.U.U.U.U.U.U.U.U.U.U.U.U.U.U.U.U.U.U.U.U.I.I.U.U.U.U.U.U.U.U.U.U.U.U.U.U.U.U.U.U.U.U.U.U.U.U.U.U.",
"U.U.U.U.U.U.U.U.U.U.U.U.U.U.U.U.U.U.U.U.U.I.<X,X*X~.Q.%XI.U.U.U.U.U.U.U.U.U.U.U.U.U.U.U.U.U.U.U.U.U.",
"U.U.U.U.U.U.U.U.U.U.U.U.U.U.U.U.U.U.U.,X:X:X>X-X).,.%.T.;X:X:XI.U.U.U.U.U.U.U.U.U.U.U.U.U.U.U.U.U.U.",
"U.U.U.U.U.U.U.U.U.U.U.U.U.U.U.U.U.U.<X~.T.<.<.,.=.=.=.%.>.5.R.;XU.U.U.U.U.U.U.U.U.U.U.U.U.U.U.U.U.U.",
"U.U.U.U.U.U.U.U.U.U.U.U.U.U.U.U.I.;X*X/.=.O.Y I I I E E G ' ,.Q.>X1XY.U.U.U.U.U.U.U.U.U.U.U.U.U.I.U.",
"U.U.U.U.U.U.U.U.U.U.U.U.U.U.U.U.I.~.*.' Y E E E I I I I D Q @.>.^.3X2XU.U.U.U.U.U.U.U.U.U.U.U.U.U.U.",
"U.U.U.U.U.U.U.U.U.U.U.U.I.I.I.:X%XT.! ) U P I I K K I P L G ~ +.<.~.-X2X2X<XU.U.U.U.U.U.U.U.U.U.U.U.",
"U.U.U.U.U.U.U.U.U.U.U.U.I.P.P.&XT...Z Q ( B N N K K K J H ) ~ M }  .!.rX2X<XU.<XU.U.U.U.U.U.U.U.U.U.",
"U.U.U.U.U.U.U.U.U.U.U.U.<X<X~.4.k f d j Z D _ P K J J H ] ! b g 5 5  .|.4X5X2X1XU.U.U.U.U.U.U.U.U.U.",
"U.U.U.U.U.I.U.U.U.U.U.<X,X*XT.} f f f j x Z G ( D F Y T @.b l g 5 5 { >.[.0X3X2XU.U.U.U.U.U.U.U.U.U.",
"U.U.U.U.U.U.U.U.U.U.1X1X~.p.%.A A +.&.k 4 z b W S S S A m g 4 ..#.! ! @.:.[.qX8XU.U.U.U.U.U.U.U.U.U.",
"U.U.U.U.U.U.U.U.U.U.1X8X).$.~ S O.*.a.9 , 4 5 z h l l k 7 < < &.w.^ ~ ) =.h.eX9XU.U.U.U.U.U.U.U.U.U.",
"U.U.U.U.U.U.U.I.Y.<X2XrX(.~ T ] =.s.h.8 $ : : > > > 1 > $ $ < 7.u.Q D L Y s.$XrXU.Y.U.U.U.U.U.U.U.U.",
"U.U.U.U.U.U.U.I.1X2X-X`.i.~ H U H w.d.c 3 v m z h j l n { 8 3 6.e.` V B U :.(.=X2X2XU.U.U.U.U.U.U.U.",
"U.U.U.U.I.U.U.U.U.8X=Xi.$.Q U L _ ;.u.m v 8.6.W Z Z ~ *.h. .c 6.q.` V B L / *.^.6XY.U.U.U.U.U.U.U.U.",
"U.U.U.U.U.U.U.U.7X8X X7.~ G L U _ q.z.r.8.u.e.^ W Z @.w.c.d.r.l.q.V C C L S o.Q.7XU.U.U.U.U.U.U.U.U.",
"U.U.U.U.U.U.U.U.7X9X.X,.@.] F L _ -.t.u.u.q.9.^ ~ ~ / ;.f.y.e.t.0.V B P F @.>.~.U.U.U.U.U.U.U.U.U.U.",
"U.U.U.U.U.U.U.U.7XrX4X,.=.Y F F L ( ^ ^ [ [ ^ ~ / ' ' / $.^ ' ' ( L P I Y @.<.~.U.U.U.U.U.U.U.U.U.U.",
"U.U.U.U.U.U.U.U.1X7X-XXX1.O.O.=.] ~ Q 9.t.u.t.t.t.y.q.q.u.u.e.[ ] ] R =.=.i.^.>XU.U.U.U.U.U.U.U.U.U.",
"U.U.U.U.U.U.U.U.U.U.8XqXXX1.1.g.w.9.$.u.b.b.b.l.b.b.b.l.n.z.l.w.;.:.1.1.g.}.<XY.U.U.U.U.U.U.U.U.U.U.",
"U.U.U.U.U.U.U.U.U.U.2X2X4XwXoXoX{.].x.n.m.N.N.m.m.m.N.N.z.n.b.c.].oXoXoX4X3XY.U.U.U.U.U.U.U.U.U.U.U.",
"U.U.U.U.U.U.U.U.U.U.Y.U.9XeX|.E.5._.+XM.v.@X@XN.].N.N.M.M.M.+X{.`.E.!.!.3X2XU.U.U.U.U.U.U.U.U.U.U.U.",
"U.U.U.U.U.U.U.U.U.U.U.U.9XqXi * & p OXj.k.+X'.'.'.M.M.M.@XM.OX_.X.* - u G.I.I.U.U.U.U.U.U.U.U.U.U.U.",
"U.U.U.U.U.U.U.U.U.U.Y.7XW.s - @ O ; p q | j.'.#X].].@X+Xv.3.q q 6 X e D.J.U.I.U.U.U.U.U.U.U.U.U.U.U.",
"U.U.U.U.U.U.U.U.U.U.1X8XC.# o       X @ 2 2._.$X{.{.{.`.5.0 % O . . y I.U.U.U.U.U.U.U.U.U.U.U.U.U.U.",
"U.U.U.U.U.U.U.U.U.U.1X7XC.# o .       X @ 2 |  X X X X4.2 & O   . . B.L.I.U.U.U.U.U.U.U.U.U.U.U.U.U.",
"U.U.U.U.U.U.U.U.U.U.U.7XS.t = +     . o O @ i =X-X8X-XA.* ; w w r r D.L.I.I.U.U.U.U.U.U.I.U.U.U.U.U.",
"U.U.U.U.U.U.U.U.U.U.U.U.,XG.u #   . + + @ # a Y.P.<X<XF.e Z.J.J.J.J.L.I.U.I.U.U.U.U.U.U.U.U.U.U.U.U.",
"U.U.U.U.U.U.U.U.U.U.U.U.Y.K.F.V.a B.y V.V.V.F.U.I.U.U.H.S.H.I.U.I.U.U.U.U.U.U.U.U.U.U.U.U.U.U.U.U.U.",
"U.U.U.U.U.U.U.U.U.U.U.U.U.U.U.U.U.Y.U.U.Y.Y.U.U.I.Y.U.U.U.U.U.U.I.U.U.U.U.U.U.U.U.U.U.U.U.U.U.U.U.U.",
"U.U.U.U.U.U.U.U.U.U.U.U.U.U.U.U.U.U.U.U.U.U.U.U.U.U.U.U.U.U.U.U.U.U.U.U.U.U.U.U.U.U.U.U.U.U.U.U.U.U.",
"U.U.U.U.U.U.U.U.U.U.U.U.U.U.U.U.U.U.U.U.U.U.U.U.U.U.U.U.U.U.U.U.U.U.U.U.U.U.U.U.U.U.U.U.U.U.U.U.U.U.",
"U.U.U.U.U.U.U.U.U.U.U.U.U.U.U.U.U.U.U.U.U.U.U.U.U.U.U.U.U.U.U.U.U.U.U.U.U.U.U.U.U.U.U.U.U.U.U.U.U.U.",
"U.U.U.U.U.U.U.U.U.U.U.U.U.U.U.U.U.U.U.U.U.U.U.U.U.U.U.U.U.U.U.U.U.U.U.U.U.U.U.U.U.U.U.U.U.U.U.U.U.U.",
"U.U.U.U.U.U.U.U.U.U.U.U.U.U.U.U.U.U.U.U.U.U.U.U.U.U.U.U.U.U.U.U.U.U.U.U.U.U.U.U.U.U.U.U.U.U.U.U.I.U.",
"U.U.U.U.U.U.U.U.U.U.U.U.U.U.U.U.U.U.U.U.U.U.U.U.U.U.U.U.I.U.U.U.U.U.U.U.U.U.U.U.U.U.U.U.U.U.U.U.U.U.",
"U.U.U.U.U.U.U.U.U.U.U.U.U.U.U.U.U.U.U.U.U.U.U.U.U.U.U.U.U.U.U.U.U.U.U.U.U.U.U.U.U.U.U.U.U.U.U.U.U.U.",
"U.U.U.U.U.U.U.U.U.U.U.U.U.U.U.U.U.U.U.U.U.U.U.U.U.U.U.U.U.U.U.U.U.U.U.U.U.U.U.U.U.U.U.U.U.U.U.U.U.U.",
"U.U.U.U.U.U.U.U.U.U.U.U.U.U.U.U.U.U.I.U.U.U.U.U.U.U.U.U.U.U.U.U.U.U.U.U.U.U.U.U.U.U.U.U.U.U.U.U.U.U.",
"U.U.U.U.U.U.U.U.U.U.U.U.U.U.U.U.U.U.U.U.U.U.U.U.U.U.U.U.U.U.U.U.U.U.U.U.U.U.U.U.U.U.U.U.U.U.U.U.U.U."
};
