/* XPM */
static char *result[] = {
/* columns rows colors chars-per-pixel */
"50 50 222 2 ",
"   c #030401",
".  c #070906",
"X  c #120B04",
"o  c #190B05",
"O  c #181106",
"+  c #0C1516",
"@  c #151619",
"#  c #250B04",
"$  c #370401",
"%  c #26170D",
"&  c #31250B",
"*  c #161E28",
"=  c #241F22",
"-  c #362625",
";  c #273132",
":  c #460702",
">  c #590301",
",  c #56190B",
"<  c #541D13",
"1  c #640201",
"2  c #7A1E11",
"3  c #732B0F",
"4  c #642616",
"5  c #473421",
"6  c #52372A",
"7  c #4A3C32",
"8  c #792A21",
"9  c #6C3B2C",
"0  c #50402B",
"q  c #644C29",
"w  c #7A4129",
"e  c #76523D",
"r  c #3B464C",
"t  c #2E4459",
"y  c #334757",
"u  c #364C67",
"i  c #775A47",
"p  c #425C7D",
"a  c #842519",
"s  c #912915",
"d  c #843219",
"f  c #993B1C",
"g  c #A2381A",
"h  c #82342F",
"j  c #983422",
"k  c #A53A24",
"l  c #9C451B",
"z  c #B64B1D",
"x  c #8B4A26",
"c  c #975935",
"v  c #BB5328",
"b  c #BA4B32",
"n  c #A85236",
"m  c #A8593B",
"M  c #ED5519",
"N  c #F6561D",
"B  c #EB611D",
"V  c #C75527",
"C  c #D85C2B",
"Z  c #C7593B",
"A  c #DA5D37",
"S  c #FB4F2A",
"D  c #E95B27",
"F  c #EB5B26",
"G  c #EB5B2B",
"H  c #FE5523",
"J  c #F35B24",
"K  c #F85826",
"L  c #FC532A",
"P  c #F45C2B",
"I  c #E45D34",
"U  c #E95839",
"Y  c #F75734",
"T  c #CD672D",
"R  c #DA662C",
"E  c #CA643A",
"W  c #DC6634",
"Q  c #D86C32",
"!  c #DA643A",
"~  c #DC6B3A",
"^  c #D87236",
"/  c #E86328",
"(  c #ED612B",
")  c #E67228",
"_  c #E36637",
"`  c #EC6233",
"'  c #F16734",
"]  c #E5743B",
"[  c #E6773D",
"{  c #F2753A",
"}  c #965243",
"|  c #B45947",
" . c #8B724F",
".. c #B2624D",
"X. c #945D64",
"o. c #9F7479",
"O. c #B6756A",
"+. c #D55B47",
"@. c #E75840",
"#. c #C96B4B",
"$. c #D86847",
"%. c #D3754D",
"&. c #D86C57",
"*. c #C77956",
"=. c #D77956",
"-. c #E66A48",
";. c #E17945",
":. c #F27946",
">. c #F46951",
",. c #E37959",
"<. c #CB7A65",
"1. c #CF7A6E",
"2. c #E97C6A",
"3. c #A58358",
"4. c #BA9762",
"5. c #AA8670",
"6. c #DE854A",
"7. c #D58D5C",
"8. c #D98858",
"9. c #E8854A",
"0. c #F48545",
"q. c #F58B4E",
"w. c #EA8956",
"e. c #ED9556",
"r. c #EC965C",
"t. c #F29354",
"y. c #F1945C",
"u. c #F49959",
"i. c #D58269",
"p. c #C98577",
"a. c #DB9875",
"s. c #E88563",
"d. c #E49868",
"f. c #E38671",
"g. c #D5AA73",
"h. c #FAA969",
"j. c #F9B86C",
"k. c #F8A878",
"l. c #ECB779",
"z. c #FCB577",
"x. c #F5BB7E",
"c. c #FBBD7B",
"v. c #ECC67A",
"b. c #F6C379",
"n. c #486383",
"m. c #53749A",
"M. c #62768C",
"N. c #557CAA",
"B. c #798892",
"V. c #5D85B4",
"C. c #7188A7",
"Z. c #6391C5",
"A. c #6B9CD5",
"S. c #6EA2DE",
"D. c #6EA4E1",
"F. c #78ABE5",
"G. c #76B2F7",
"H. c #7EB3F5",
"J. c #78B6FE",
"K. c #7DB9FE",
"L. c #8C8D94",
"P. c #BE8886",
"I. c #B6978B",
"U. c #BDA19C",
"Y. c #9990AD",
"T. c #999DBA",
"R. c #A894A7",
"E. c #AE96AA",
"W. c #A49CB7",
"Q. c #BDAFAD",
"!. c #BAAAB9",
"~. c #CE8A82",
"^. c #E49C95",
"/. c #D4AB8B",
"(. c #DBB385",
"). c #CFAC91",
"_. c #EBB989",
"`. c #F3BE83",
"'. c #F3B98C",
"]. c #EABA99",
"[. c #F4BC9A",
"{. c #C79AA2",
"}. c #C7A5A9",
"|. c #CEB7BA",
" X c #E9ACA2",
".X c #F3B9AE",
"XX c #E2C385",
"oX c #F1C784",
"OX c #F6C496",
"+X c #F6C4AF",
"@X c #E8C1B3",
"#X c #8F9EC6",
"$X c #97A3C9",
"%X c #89A9DB",
"&X c #B3B6CD",
"*X c #85AEE5",
"=X c #83B2EB",
"-X c #98B3E3",
";X c #83B6F5",
":X c #8CBBF4",
">X c #83BBFD",
",X c #8ABDFA",
"<X c #91BFF9",
"1X c #A3BFED",
"2X c #D7BDC5",
"3X c #C4BCD1",
"4X c #8DC0FC",
"5X c #9AC6F7",
"6X c #94C3FB",
"7X c #9BC6FA",
"8X c #A5C4E8",
"9X c #B7C8E6",
"0X c #A7C7F4",
"qX c #BAD4F5",
"wX c #D8C7CA",
"eX c #D9CAD4",
"rX c #E8CDD1",
"tX c #C8D3EF",
"yX c #D5DEED",
"uX c #C5D6F6",
"iX c #CCDDF3",
"pX c #E5E5F3",
/* pixels */
"J.J.J.J.J.J.J.J.J.J.J.J.J.J.J.J.J.J.J.J.J.J.J.J.J.J.J.J.J.J.J.J.J.J.J.J.J.J.J.J.J.J.J.J.J.J.J.J.J.J.",
"J.J.J.J.J.J.J.J.J.J.J.J.J.J.J.J.J.J.J.J.J.J.J.J.J.J.J.J.J.J.J.J.J.J.J.J.J.J.J.J.J.J.J.J.J.J.J.J.J.J.",
"J.J.J.J.J.J.J.J.J.J.J.J.J.J.J.J.J.J.J.J.J.J.J.J.J.J.J.J.J.J.J.J.J.J.J.J.J.J.J.J.J.J.J.J.J.J.J.J.J.J.",
"J.J.J.J.J.J.J.J.J.J.J.J.J.J.J.J.J.J.J.J.J.J.J.J.J.J.J.J.J.J.J.J.J.J.J.J.J.J.J.J.J.J.J.J.J.J.J.J.J.J.",
"J.J.J.J.J.J.J.J.J.J.J.J.J.J.J.J.J.J.J.J.J.J.J.J.J.J.J.J.J.J.J.J.J.J.J.J.J.J.J.J.J.J.J.J.J.J.J.J.J.J.",
"J.J.J.J.J.J.J.J.J.J.J.J.J.J.J.J.J.J.J.J.J.J.J.J.J.J.J.J.J.J.J.J.J.J.J.J.J.J.J.J.J.J.J.J.J.J.J.J.J.J.",
"J.J.J.J.J.J.J.J.J.J.J.J.J.J.J.J.J.J.J.J.J.J.J.J.J.J.J.J.J.J.J.J.J.J.J.J.J.J.J.J.J.J.J.J.J.J.J.J.J.J.",
"J.J.J.J.J.J.J.J.J.J.J.J.J.J.J.J.J.J.J.J.J.J.J.J.J.J.J.J.J.J.J.J.J.J.J.J.J.J.J.J.J.J.J.J.J.J.J.J.J.J.",
"J.J.J.J.J.J.J.J.J.J.J.J.J.J.J.J.J.J.J.J.J.J.J.J.J.J.J.J.J.J.J.J.J.J.J.J.J.J.J.J.J.J.J.J.J.J.J.J.J.J.",
"J.J.J.J.J.J.J.J.J.J.J.J.J.J.J.J.J.J.J.J.J.J.J.J.J.J.J.G.J.J.J.J.J.J.J.J.J.J.J.J.J.J.J.J.J.J.J.J.J.J.",
"J.J.J.J.J.J.J.J.J.J.J.J.J.J.J.J.J.J.J.J.J.J.J.J.J.J.J.G.J.J.J.J.J.J.J.J.J.J.J.J.J.J.J.J.J.J.J.J.J.J.",
"J.J.J.J.J.J.J.J.J.J.J.J.J.J.J.J.J.J.J.J.=X$XW.E.R.R.R.R.R.%XJ.J.J.J.J.J.J.J.J.J.J.J.J.J.J.J.J.J.J.J.",
"J.J.J.J.J.J.J.J.J.J.J.J.J.J.J.J.J.J.J.H.$XP.1.&.,.-.$.%.#.R.F.J.J.J.J.J.J.J.J.J.J.J.J.J.J.J.J.J.J.J.",
"J.J.J.J.J.J.J.J.J.J.J.J.J.J.J.J.J.J.H.W.P.&.+.@.@.@.` ' ~ i.I.%XJ.J.J.J.J.J.J.J.J.J.J.J.J.J.J.J.J.J.",
"J.J.J.J.J.J.J.J.J.J.J.J.J.J.J.J.J.F.$Xp.$.U Y Y S S Y P ( Q *.W.%X>XJ.J.J.J.J.J.J.J.J.J.J.J.J.J.J.J.",
"J.J.J.J.J.J.J.J.J.J.J.J.J.J.J.J.J.T.i.$.U Y Y Y S S H K M / ~ <.E.;XJ.J.J.J.J.J.J.J.J.J.J.J.J.J.J.J.",
"J.J.J.J.J.J.J.J.J.J.J.J.J.J.J.=XT.5.#.W G P H L H H H H N D W #.O.Y.*XJ.J.J.J.J.J.J.J.J.J.J.J.J.J.J.",
"J.J.J.J.J.J.J.J.J.J.J.J.J.J.;X#XO.m V R / F N N N H N H J D C Z | ..Y.;X;XJ.J.J.J.J.J.J.J.J.J.J.J.J.",
"J.J.J.J.J.J.J.J.J.J.J.J.>X:XW.o.h 2 a z C B P P H H K P ` I V s 8 8 X.R.-X,XJ.J.J.J.J.J.J.J.J.J.J.J.",
"J.J.J.J.J.J.J.J.J.J.J.;X-X&X5.| a a s f z T / _ G G D I ! b k s 2 2 n 1.E.-X,X>XJ.J.J.J.J.J.J.J.J.J.",
"J.J.J.J.J.J.J.J.J.J.>X<X!.i.#.Z Z #.O.x 3 l v T A A Z +.m d 8 Z #.E E $.2.{.8X6XJ.J.J.J.J.J.J.J.J.J.",
"J.J.J.J.J.J.J.J.J.J.:X9X{.%.! A ! =.a.w , 3 3 l j k k j 8 , 4 *.w.^ _ I -.~.9X7XJ.J.J.J.J.J.J.J.J.J.",
"J.J.J.J.J.J.J.J.J.K.<XeXa._ ` ` -.s.a.9 $ $ : > > 1 1 1 : $ < 7.u.Q D J ' f.eX0XJ.J.J.J.J.J.J.J.J.J.",
"J.J.J.J.J.J.J.G.>X5X3X/.8.R D P ' w.a.x , c n l g g l n } 4 , 7.u.R / J ` 2.}.&X<X,XJ.J.J.J.J.J.J.J.",
"J.J.J.J.J.J.J.J.,XqX|.8.;.D J J ' q.d.c x 7.6.T C C ! =.a.m x 8.u.) B M P ;.1.!.qX4XJ.J.J.J.J.J.J.J.",
"J.J.J.J.J.J.J.J.,XyX@X=.! D P P J :.z.d.7.h.e.^ T R ! w.k.d.7.u.q.) B M F $.O.!.qX4XJ.J.J.J.J.J.J.J.",
"J.J.J.J.J.J.J.J.,XyX@X&._ U L P F :.u.d.u.u.9.T Q W Q ;.y.u.t.t.0.) J J D $.<.}.uX6XJ.J.J.J.J.J.J.J.",
"J.J.J.J.J.J.J.J.6XyX|.2.-.Y Y L Y P ) [ 6.^ Q T ~ ^ R Q ;.] [ { ' ( J P U $.1.|.uX6XJ.J.J.J.J.J.J.J.",
"J.J.J.J.J.J.J.J.;X<X3X.X2.>.U U I _ ] 9.y.y.r.y.r.u.q.t.u.t.0.{ ` _ _ -.$.2. X3X7X>XJ.J.J.J.J.J.J.J.",
"J.J.J.J.J.J.J.J.J.J.1XrX.X2.+.b b E ;.y.h.z.z.`.z.h.z.j.j.h.u.9.;.,.,.2.f.^.rX9XJ.J.J.J.J.J.J.J.J.J.",
"J.J.J.J.J.J.J.J.J.J.1X1X2X^.} 4 , c g.l.c.`.c.z.c.c.b.j.j.j.c.x.[.[..X+X@XeX1X,XJ.J.J.J.J.J.J.J.J.J.",
"J.J.J.J.J.J.J.J.J.;X<XtX3Xo.6 # # 6  . .4.g.`.`.`.c.b.b.j.v.oX_.).4.I.{.eXtX>XJ.J.J.J.J.J.J.J.J.J.J.",
"J.J.J.J.J.J.J.J.J.J.7XpXL.- X   . . O & q 4.(.OXoXl.b.b.v.XXXXXX3.- - 0 T.0X>XJ.J.J.J.J.J.J.J.J.J.J.",
"J.J.J.J.J.J.J.J.J.J.7XpXL.@ .       . O & q 3.OXoX'.l.oXoXXXg.i r O O ; M.#XH.H.J.J.J.J.J.J.J.J.J.J.",
"J.J.J.J.J.J.J.J.J.J.6XiXC.; + . . . . . X # e (.[.[._._.oX(.3.5 o   . + u V.H.J.J.J.J.J.J.J.J.J.J.J.",
"J.J.J.J.J.J.J.J.J.J.>X6X-XL.r + . . + . . % i (.[.[.[.]./. .6 % X   * t N.S.G.J.J.J.J.J.J.J.J.J.J.J.",
"J.J.J.J.J.J.J.J.J.J.J.J.5X8XB.y y t y y y r B.Q.|.wX2XU.3.0 o X @ * u m.A.J.J.J.J.J.J.J.J.J.J.J.J.J.",
"J.J.J.J.J.J.J.J.J.J.J.J.H.K.;XF.=XF.F.F.F.F.F.H.;XH.:XC.7 = X @ ; n.V.D.G.J.J.J.J.J.J.J.J.J.J.J.J.J.",
"J.J.J.J.J.J.J.J.J.J.J.J.J.J.>X4X4XK.>XK.K.J.J.J.J.J.J.A.m.p p n.N.Z.D.G.J.J.J.J.J.J.J.J.J.J.J.J.J.J.",
"J.J.J.J.J.J.J.J.J.J.J.J.J.J.J.J.J.J.J.J.J.J.J.J.J.J.J.J.G.J.K.K.J.J.J.J.J.J.J.J.J.J.J.J.J.J.J.J.J.J.",
"J.J.J.J.J.J.J.J.J.J.J.J.J.J.J.J.J.J.J.J.J.J.J.J.J.J.J.J.J.J.J.J.J.J.J.J.J.J.J.J.J.J.J.J.J.J.J.J.J.J.",
"J.J.J.J.J.J.J.J.J.J.J.J.J.J.J.J.J.J.J.J.J.J.J.J.J.J.J.J.J.J.J.J.J.J.J.J.J.J.J.J.J.J.J.J.J.J.J.J.J.J.",
"J.J.J.J.J.J.J.J.J.J.J.J.J.J.J.J.J.J.J.J.J.J.J.J.J.J.J.J.J.J.J.J.J.J.J.J.J.J.J.J.J.J.J.J.J.J.J.J.J.J.",
"J.J.J.J.J.J.J.J.J.J.J.J.J.J.J.J.J.J.J.J.J.J.J.J.J.J.J.J.J.J.J.J.J.J.J.J.J.J.J.J.J.J.J.J.J.J.J.J.J.J.",
"J.J.J.J.J.J.J.J.J.J.J.J.J.J.J.J.J.J.J.J.J.J.J.J.J.J.J.J.J.J.J.J.J.J.J.J.J.J.J.J.J.J.J.J.J.J.J.J.J.J.",
"J.J.J.J.J.J.J.J.J.J.J.J.J.J.J.J.J.J.J.J.J.J.J.J.J.J.J.J.J.J.J.J.J.J.J.J.J.J.J.J.J.J.J.J.J.J.J.J.J.J.",
"J.J.J.J.J.J.J.J.J.J.J.J.J.J.J.J.J.J.J.J.J.J.J.J.J.J.J.J.J.J.J.J.J.J.J.J.J.J.J.J.J.J.J.J.J.J.J.J.J.J.",
"J.J.J.J.J.J.J.J.J.J.J.J.J.J.J.J.J.J.J.J.J.J.J.J.J.J.J.J.J.J.J.J.J.J.J.J.J.J.J.J.J.J.J.J.J.J.J.J.J.J.",
"J.J.J.J.J.J.J.J.J.J.J.J.J.J.J.J.J.J.J.J.J.J.J.J.J.J.J.J.J.J.J.J.J.J.J.J.J.J.J.J.J.J.J.J.J.J.J.J.J.J.",
"J.J.J.J.J.J.J.J.J.J.J.J.J.J.J.J.J.J.J.J.J.J.J.J.J.J.J.J.J.J.J.J.J.J.J.J.J.J.J.J.J.J.J.J.J.J.J.J.J.J."
};
