/* XPM */
static char *ae0a8b56d9fe471cff1d3105a87c922erPLUgBb1uVEUaTIm[] = {
/* columns rows colors chars-per-pixel */
"50 50 221 2 ",
"   c #050402",
".  c #0B0402",
"X  c #0B0902",
"o  c #080C09",
"O  c #150502",
"+  c #130A02",
"@  c #171108",
"#  c #0D0F10",
"$  c #0C1212",
"%  c #1B1815",
"&  c #2C0401",
"*  c #390A06",
"=  c #25180A",
"-  c #301D06",
";  c #31220E",
":  c #2E261E",
">  c #352913",
",  c #351F20",
"<  c #192428",
"1  c #1E3138",
"2  c #2A3134",
"3  c #4B0803",
"4  c #5B0502",
"5  c #54180B",
"6  c #660302",
"7  c #611C10",
"8  c #5A2B0F",
"9  c #46351E",
"0  c #692715",
"q  c #772717",
"w  c #722E11",
"e  c #493825",
"r  c #683B2A",
"t  c #73302A",
"y  c #744A33",
"u  c #79673E",
"i  c #273947",
"p  c #343D45",
"a  c #743843",
"s  c #2D4150",
"d  c #3E4959",
"f  c #3A5166",
"g  c #3C5775",
"h  c #484B51",
"j  c #565263",
"k  c #455D78",
"l  c #6B587A",
"z  c #4D617A",
"x  c #862A19",
"c  c #952F1C",
"v  c #94371D",
"b  c #A73B1B",
"n  c #8E3125",
"m  c #A43320",
"M  c #9F451F",
"N  c #954921",
"B  c #8F562D",
"V  c #92502D",
"C  c #AB4A28",
"Z  c #BB4D27",
"A  c #B2552F",
"S  c #ED5C1E",
"D  c #F9571E",
"F  c #C55528",
"G  c #D95D2C",
"H  c #C45436",
"J  c #DA5D36",
"K  c #FE4F24",
"L  c #ED5B25",
"P  c #E75B29",
"I  c #EC5C2B",
"U  c #FE5523",
"Y  c #F85627",
"T  c #F65A24",
"R  c #F65C2A",
"E  c #ED5D33",
"W  c #EA5C3A",
"Q  c #F85934",
"!  c #D4642D",
"~  c #DB632D",
"^  c #CA6736",
"/  c #DB6537",
"(  c #DB6B34",
")  c #D57233",
"_  c #DB7537",
"`  c #E96528",
"'  c #F56327",
"]  c #F4622C",
"[  c #E5722A",
"{  c #EB6333",
"}  c #E9633A",
"|  c #E66938",
" . c #F56A34",
".. c #E7783A",
"X. c #915352",
"o. c #B05C45",
"O. c #826945",
"+. c #847247",
"@. c #967656",
"#. c #AF674A",
"$. c #937163",
"%. c #A56760",
"&. c #BC7764",
"*. c #B77978",
"=. c #C75B46",
"-. c #E55D46",
";. c #CB6A45",
":. c #DC6646",
">. c #C97648",
",. c #DF774D",
"<. c #C76C58",
"1. c #D56C57",
"2. c #CC7657",
"3. c #D47459",
"4. c #E46847",
"5. c #EA7B47",
"6. c #EA7049",
"7. c #CD6C6C",
"8. c #D36B65",
"9. c #C67565",
"0. c #D77667",
"q. c #C57A77",
"w. c #E37B69",
"e. c #AA875C",
"r. c #BD8279",
"t. c #B99B74",
"y. c #D4884C",
"u. c #D9935E",
"i. c #E88847",
"p. c #F28B49",
"a. c #F3934E",
"s. c #EB8957",
"d. c #F28C55",
"f. c #EE9359",
"g. c #EA9558",
"h. c #F59458",
"j. c #D58273",
"k. c #D28E72",
"l. c #DB9D76",
"z. c #E78B65",
"x. c #F39865",
"c. c #E89C72",
"v. c #C7A670",
"b. c #D1B97B",
"n. c #EEA562",
"m. c #FAA768",
"M. c #FAB66B",
"N. c #FCA873",
"B. c #E8BA7B",
"V. c #FFB275",
"C. c #F7B778",
"Z. c #FCBD7C",
"A. c #F6C478",
"S. c #446587",
"D. c #476E90",
"F. c #726F85",
"G. c #917F95",
"H. c #867EA2",
"J. c #5883B0",
"K. c #6288B5",
"L. c #5D8EC3",
"P. c #6191C5",
"I. c #6B91C8",
"U. c #6B9DD6",
"Y. c #6A9EDA",
"T. c #6DA1DD",
"R. c #7AA4D8",
"E. c #72AAEC",
"W. c #73AEF1",
"Q. c #77B1F7",
"!. c #7DB2F3",
"~. c #78B6FE",
"^. c #7DB9FE",
"/. c #9B8B98",
"(. c #AD8996",
"). c #BA8991",
"_. c #A4979D",
"`. c #BBA194",
"'. c #9591B1",
"]. c #A694A7",
"[. c #B398A6",
"{. c #AA9AB5",
"}. c #B5A2B5",
"|. c #C38789",
" X c #C38F90",
".X c #E69389",
"XX c #D4AB8F",
"oX c #EBBC88",
"OX c #F6BD88",
"+X c #E7AE99",
"@X c #F6BE9A",
"#X c #C9B9BB",
"$X c #D4BCBA",
"%X c #E8C386",
"&X c #F7C384",
"*X c #D5C1BF",
"=X c #F4C0A3",
"-X c #979EC6",
";X c #8BA1C8",
":X c #9BA0C6",
">X c #91A3CD",
",X c #8AA5D7",
"<X c #8CA5DB",
"1X c #8BA9DD",
"2X c #9DB3DF",
"3X c #A3A8C7",
"4X c #B8B5CD",
"5X c #86AAE4",
"6X c #81AEEA",
"7X c #84B1EB",
"8X c #92B4E8",
"9X c #92B7EB",
"0X c #88B6F1",
"qX c #81BAFD",
"wX c #8ABEFD",
"eX c #A2BFEB",
"rX c #C3B7CE",
"tX c #94C1F8",
"yX c #A3C9FA",
"uX c #F0C3C4",
"iX c #C4C8E5",
/* pixels */
"~.~.~.~.~.~.~.~.~.~.~.~.~.~.~.~.~.~.~.~.~.~.~.~.~.~.~.~.~.~.~.~.~.~.~.~.~.~.~.~.~.~.~.~.~.~.~.~.~.~.",
"~.~.~.~.~.~.~.~.~.~.~.~.~.~.~.~.~.~.~.~.~.~.~.~.~.~.~.~.~.~.~.~.~.~.~.~.~.~.~.~.~.~.~.~.~.~.~.~.~.~.",
"~.~.~.~.~.~.~.~.~.~.~.~.~.~.~.~.~.~.~.~.~.~.~.~.~.~.~.~.~.~.~.~.~.~.~.~.~.~.~.~.~.~.~.~.~.~.~.~.~.~.",
"~.~.~.~.~.~.~.~.~.~.~.~.~.~.~.~.~.~.~.~.~.~.~.~.~.~.~.~.~.~.~.~.~.~.~.~.~.~.~.~.~.~.~.~.~.~.~.~.~.~.",
"~.~.~.~.~.~.~.~.~.~.~.~.~.~.~.~.~.~.~.~.~.~.~.~.~.~.~.~.~.~.~.~.~.~.~.~.~.~.~.~.~.~.~.~.~.~.~.~.~.~.",
"~.~.~.~.~.~.~.~.~.~.~.~.~.~.~.~.~.~.~.~.~.~.~.~.~.~.~.~.~.~.~.~.~.~.~.~.~.~.~.~.~.~.~.~.~.~.~.~.~.~.",
"~.~.~.~.~.~.~.~.~.~.~.~.~.~.~.~.~.~.~.~.~.~.~.~.~.~.~.~.~.~.~.~.~.~.~.~.~.~.~.~.~.~.~.~.~.~.~.~.~.~.",
"~.~.~.~.~.~.~.~.~.~.~.~.~.~.~.~.~.~.~.~.~.~.~.~.~.~.~.~.~.~.~.~.~.~.~.~.~.~.~.~.~.~.~.~.~.~.~.~.~.~.",
"~.~.~.~.~.~.~.~.~.~.~.~.~.~.~.~.~.~.~.~.~.~.~.~.~.~.~.~.~.~.~.~.~.~.~.~.~.~.~.~.~.~.~.~.~.~.~.~.~.~.",
"~.~.~.~.~.~.~.~.~.~.~.~.~.~.~.~.~.~.~.~.~.~.~.~.~.~.~.~.~.~.~.~.~.~.~.~.~.~.~.~.~.~.~.~.~.~.~.~.~.~.",
"~.~.~.~.~.~.~.~.~.~.~.~.~.~.~.~.~.~.~.~.~.~.qXQ.~.~.~.~.~.~.~.~.~.~.~.~.~.~.~.~.~.~.~.~.~.~.~.~.~.~.",
"~.~.~.~.~.~.~.~.~.~.~.~.~.~.~.~.~.~.~.Q.5X<X<X<X<X1X1X5X7X!.Q.~.~.~.~.~.~.~.~.~.~.~.~.~.~.~.~.~.~.~.",
"~.~.~.~.~.~.~.~.~.~.~.~.~.~.~.~.~.~.~.<XG.q.7.8.8.0.9.r._.:X7X~.~.~.~.~.~.~.~.~.~.~.~.~.~.~.~.~.~.~.",
"~.~.~.~.~.~.~.~.~.~.~.~.~.~.~.~.~.6X>X(.1.4.-.K Q  .} | 9.(.>X!.~.~.~.~.~.~.~.~.~.~.~.~.~.~.~.~.~.~.",
"~.~.~.~.~.~.~.~.~.~.~.~.~.~.~.~.~.6X*.W Q Q Q K K K T S ~ ;._.1XW.~.~.~.~.~.~.~.~.~.~.~.~.~.~.~.~.~.",
"~.~.~.~.~.~.~.~.~.~.~.~.~.~.~.~.;X/.<.{ Q Y K U U U D S P / &._.<X!.~.~.~.~.~.~.~.~.~.~.~.~.~.~.~.~.",
"~.~.~.~.~.~.~.~.~.~.~.~.~.~.Q.E.G.o.J } I T D D U D D T ` G A %.'.R.~.~.~.~.~.~.~.~.~.~.~.~.~.~.~.~.",
"~.~.~.~.~.~.~.~.~.~.~.~.~.qXI.l a x Z G P ] T T D D Y E P F c q t F.,X6X~.~.~.~.~.~.~.~.~.~.~.~.~.~.",
"~.~.~.~.~.~.~.~.~.~.~.~.!.5XH.a n x v C F ! { I L I P J F b c x q X.(.-X5X~.~.~.~.~.~.~.~.~.~.~.~.~.",
"~.~.~.~.~.~.~.~.~.~.~.~.E.].*.;.<.2.y w N A ^ / J J H A x q o.;.^ H <.|.{.6X~.~.~.~.~.~.~.~.~.~.~.~.",
"~.~.~.~.~.~.~.~.~.~.~.6X,X*.1.:.j.k.y 3 8 w v v m m n q 7 7 #.g._ / W 3. X8XwX~.~.~.~.~.~.~.~.~.~.~.",
"~.~.~.~.~.~.~.~.~.~.~.5X].1.} 4.z.v.r * * 5 4 4 6 6 4 3 3 5 y.h.) ` I } 0.4XeX~.~.~.~.~.~.~.~.~.~.~.",
"~.~.~.~.~.~.~.~.~.~.~.{.r.:.I | z.l.r 0 B V M b b b C #.w 8 >.a.[ ` R E ,. X3XqX~.~.~.~.~.~.~.~.~.~.",
"~.~.~.~.~.~.~.~.~.~.~.].2.` L { s.c.B B y.y.) ! G J 6.N.#.N y.a.[ ' ] R :.7.].wXqX~.~.~.~.~.~.~.~.~.",
"~.~.~.~.~.~.~.~.~.~.~.].3.` R  .d.x.u.u.B.g.) ~ G | s.N.z.s.x.a.` S D E :.<.[.yXtX~.~.~.~.~.~.~.~.~.",
"~.~.~.~.~.~.~.~.~.Q.~.].3.{ T R 5.a.g.g.g.i.) ( | | 5.x.h.d.h.p.` T T E :.9.[.yXtX~.~.~.~.~.~.~.~.~.",
"~.~.~.~.~.~.~.~.~.^.^.'.9.4.T P ] ...._ _ ) ) _ ( ! ( 5.| ~ }  .] R K -.1.w.}.yX^.~.~.~.~.~.~.~.~.~.",
"~.~.~.~.~.~.~.~.~.~.^.:X).8.4.{ { ..i.a.g.g.g.f.f.f.f.h.d.d.5.} W W -.-.w.+XrXwX~.~.~.~.~.~.~.~.~.~.",
"~.~.~.~.~.~.~.~.~.~.~.2X{.).k.g.i...a.m.V.V.V.V.V.V.V.m.V.N.s.:.A =.=.8..X=XyX~.~.~.~.~.~.~.~.~.~.~.",
"~.~.~.~.~.~.~.~.~.~.~.!.8X4X$X=XC.n.M.M.V.Z.Z.V.OX&XA.B.C.B.l.#.0 7 q q.uXiXyX~.~.~.~.~.~.~.~.~.~.~.",
"~.~.~.~.~.~.~.~.~.~.~.~.!.;X_.v.v.A.A.A.Z.A.OX&X&X&X%XB.v.e.@.y * & * $.}.yXtX~.~.~.~.~.~.~.~.~.~.~.",
"~.~.~.~.~.~.~.~.~.~.~.~.T.j p > u b.%X&XZ.&X&XOXOX&XoXb.u > ; % . . O , j ,X^.~.~.~.~.~.~.~.~.~.~.~.",
"~.~.~.~.~.~.~.~.~.~.~.L.S.1 % @ 9 +.v.oXoXoXOXOXOXoXt.O.9 + X X       % d U.~.~.~.~.~.~.~.~.~.~.~.~.",
"~.~.~.~.~.~.~.~.~.~.~.D.< o     O ; @.b.oXOXOX=X@XXX@.- + X X o     o % d U.~.~.~.~.~.~.~.~.~.~.~.~.",
"~.~.~.~.~.~.~.~.~.~.~.D.1 $     . @ e O.XXXX=X=X=X+X@.; @ X o o o @ < k L.Q.~.~.~.~.~.~.~.~.~.~.~.~.",
"~.~.~.~.~.~.~.~.~.~.~.D.f < #   . O = e $.`.*X*XrX#X/.h s 2 i s i s f P.~.~.~.~.~.~.~.~.~.~.~.~.~.~.",
"~.~.~.~.~.~.~.~.~.~.~.E.P.f < $ $ % % : e F.8X0X9X9X7XR.R.U.U.U.U.T.T.E.~.~.~.~.~.~.~.~.~.~.~.~.~.~.",
"~.~.~.~.~.~.~.~.~.~.~.~.W.J.D.g g g k k z K.~.~.^.qXqX^.qXqX^.^.~.~.~.~.~.~.~.~.~.~.~.~.~.~.~.~.~.~.",
"~.~.~.~.~.~.~.~.~.~.~.~.~.~.~.~.~.~.~.~.~.~.~.~.~.~.~.~.~.~.~.~.~.~.~.~.~.~.~.~.~.~.~.~.~.~.~.~.~.~.",
"~.~.~.~.~.~.~.~.~.~.~.~.~.~.~.~.~.~.~.~.~.~.~.~.~.~.~.~.~.~.~.~.~.~.~.~.~.~.~.~.~.~.~.~.~.~.~.~.~.~.",
"~.~.~.~.~.~.~.~.~.~.~.~.~.~.~.~.~.~.~.~.~.~.~.~.~.~.~.~.~.~.~.~.~.~.~.~.~.~.~.~.~.~.~.~.~.~.~.~.~.~.",
"~.~.~.~.~.~.~.~.~.~.~.~.~.~.~.~.~.~.~.~.~.~.~.~.~.~.~.~.~.~.~.~.~.~.~.~.~.~.~.~.~.~.~.~.~.~.~.~.~.~.",
"~.~.~.~.~.~.~.~.~.~.~.~.~.~.~.~.~.~.~.~.~.~.~.~.~.~.~.~.~.~.~.~.~.~.~.~.~.~.~.~.~.~.~.~.~.~.~.~.~.~.",
"~.~.~.~.~.~.~.~.~.~.~.~.~.~.~.~.~.~.~.~.~.~.~.~.~.~.~.~.~.~.~.~.~.~.~.~.~.~.~.~.~.~.~.~.~.~.~.~.~.~.",
"~.~.~.~.~.~.~.~.~.~.~.~.~.~.~.~.~.~.~.~.~.~.~.~.~.~.~.~.~.~.~.~.~.~.~.~.~.~.~.~.~.~.~.~.~.~.~.~.~.~.",
"~.~.~.~.~.~.~.~.~.~.~.~.~.~.~.~.~.~.~.~.~.~.~.~.~.~.~.~.~.~.~.~.~.~.~.~.~.~.~.~.~.~.~.~.~.~.~.~.~.~.",
"~.~.~.~.~.~.~.~.~.~.~.~.~.~.~.~.~.~.~.~.~.~.~.~.~.~.~.~.~.~.~.~.~.~.~.~.~.~.~.~.~.~.~.~.~.~.~.~.~.~.",
"~.~.~.~.~.~.~.~.~.~.~.~.~.~.~.~.~.~.~.~.~.~.~.~.~.~.~.~.~.~.~.~.~.~.~.~.~.~.~.~.~.~.~.~.~.~.~.~.~.~.",
"~.~.~.~.~.~.~.~.~.~.~.~.~.~.~.~.~.~.~.~.~.~.~.~.~.~.~.~.~.~.~.~.~.~.~.~.~.~.~.~.~.~.~.~.~.~.~.~.~.~.",
"~.~.~.~.~.~.~.~.~.~.~.~.~.~.~.~.~.~.~.~.~.~.~.~.~.~.~.~.~.~.~.~.~.~.~.~.~.~.~.~.~.~.~.~.~.~.~.~.~.~."
};
