/* XPM */
static char *result[] = {
/* columns rows colors chars-per-pixel */
"50 50 222 2 ",
"   c #040402",
".  c #0E0200",
"X  c #040A03",
"o  c #0C0902",
"O  c #0A0D0C",
"+  c #180901",
"@  c #181205",
"#  c #151719",
"$  c #2B0600",
"%  c #370703",
"&  c #281602",
"*  c #221B11",
"=  c #3D311D",
"-  c #1E2832",
";  c #292C2A",
":  c #2C302D",
">  c #2A3032",
",  c #5A0C06",
"<  c #4B1108",
"1  c #541208",
"2  c #680802",
"3  c #6F0B06",
"4  c #7B1C0E",
"5  c #791A13",
"6  c #472719",
"7  c #572615",
"8  c #50351E",
"9  c #662509",
"0  c #652315",
"q  c #7A2616",
"w  c #45372C",
"e  c #7B3727",
"r  c #43443D",
"t  c #6E4C31",
"y  c #6B5537",
"u  c #364554",
"i  c #434C50",
"p  c #5D5B53",
"a  c #645345",
"s  c #7E6D47",
"d  c #796453",
"f  c #4D5A67",
"g  c #496077",
"h  c #697074",
"j  c #811E0F",
"k  c #8B2F0D",
"l  c #812918",
"z  c #963A1A",
"x  c #A42F17",
"c  c #913B25",
"v  c #A53B29",
"b  c #B34D1A",
"n  c #97482A",
"m  c #984D35",
"M  c #945F3E",
"N  c #AD4326",
"B  c #B4492B",
"V  c #A3592F",
"C  c #AE4C33",
"Z  c #A85434",
"A  c #B65139",
"S  c #B56637",
"D  c #C64929",
"F  c #C65528",
"G  c #D65B26",
"H  c #C75939",
"J  c #D95C35",
"K  c #DD5D3A",
"L  c #E95829",
"P  c #EC5B2D",
"I  c #F45924",
"U  c #FA5826",
"Y  c #F45B2B",
"T  c #FA582A",
"R  c #E95533",
"E  c #EB5B33",
"W  c #E55838",
"Q  c #F65931",
"!  c #F45B33",
"~  c #CE6427",
"^  c #D86728",
"/  c #DC702E",
"(  c #CA6939",
")  c #DA693B",
"_  c #DD7B3A",
"`  c #E76429",
"'  c #EA6233",
"]  c #E3633A",
"[  c #EC633C",
"{  c #E76938",
"}  c #F46438",
"|  c #865C48",
" . c #B2574A",
".. c #906A4C",
"X. c #AF674D",
"o. c #B46845",
"O. c #B06753",
"+. c #A57964",
"@. c #BE756B",
"#. c #CE5F4A",
"$. c #E45B41",
"%. c #CA6E4A",
"&. c #DD664B",
"*. c #DA6A48",
"=. c #DA774B",
"-. c #D96C57",
";. c #D57753",
":. c #E66645",
">. c #ED7B44",
",. c #E97648",
"<. c #F07B49",
"1. c #E36D58",
"2. c #E57D58",
"3. c #C8766A",
"4. c #DC796A",
"5. c #CB7C75",
"6. c #D27C72",
"7. c #E5823E",
"8. c #95886F",
"9. c #B58364",
"0. c #B38F73",
"q. c #DA8649",
"w. c #DA8954",
"e. c #E48443",
"r. c #E4854C",
"t. c #EB8B58",
"y. c #F29158",
"u. c #F7A55F",
"i. c #CD8A64",
"p. c #DD8C66",
"a. c #C98475",
"s. c #D19377",
"d. c #E58864",
"f. c #EC946A",
"g. c #F89D68",
"h. c #F49A77",
"j. c #CAB277",
"k. c #DAB879",
"l. c #FAA564",
"z. c #F5A769",
"x. c #FBA26B",
"c. c #EFB16F",
"v. c #F6A571",
"b. c #FBB979",
"n. c #E9C27B",
"m. c #F3C37D",
"M. c #F2C87C",
"N. c #5C718A",
"B. c #7998BA",
"V. c #6E97C3",
"C. c #769AC3",
"Z. c #7AA6D9",
"A. c #78B6FE",
"S. c #7EB9FD",
"D. c #A6998C",
"F. c #BE9A9C",
"G. c #AD9CAD",
"H. c #AFA3A2",
"J. c #BAB3B5",
"K. c #C78683",
"L. c #CF9589",
"P. c #D69A98",
"I. c #E29E88",
"U. c #D3AD8B",
"Y. c #C9A39D",
"T. c #DDB897",
"R. c #EEA68D",
"E. c #EAA88D",
"W. c #EAB88C",
"Q. c #F5B988",
"!. c #ECB794",
"~. c #F7BF92",
"^. c #D59DA3",
"/. c #D5A6A6",
"(. c #C6B8A9",
"). c #D7B5A2",
"_. c #C5AAB0",
"`. c #CCB4B6",
"'. c #ECC385",
"]. c #F3C282",
"[. c #F8C48A",
"{. c #F9C495",
"}. c #F5C4A4",
"|. c #F7CEB4",
" X c #8CA2C0",
".X c #8CA6D7",
"XX c #91A5D5",
"oX c #9DB9DB",
"OX c #B8ADC1",
"+X c #B8BCC6",
"@X c #A8B8D9",
"#X c #BABBD8",
"$X c #86AFE7",
"%X c #84B2E6",
"&X c #97BBE6",
"*X c #85B8F6",
"=X c #83BBFC",
"-X c #8ABEFB",
";X c #95BEF2",
":X c #98BFF6",
">X c #A5BEE7",
",X c #C9BCC9",
"<X c #BBC1CE",
"1X c #B9C4D8",
"2X c #9FC2ED",
"3X c #8EC1FD",
"4X c #99C3F7",
"5X c #93C2FB",
"6X c #B7C8E7",
"7X c #A5C9F7",
"8X c #ACCBF3",
"9X c #B0CFF1",
"0X c #B1CDF4",
"qX c #CFC9D3",
"wX c #E8C9CA",
"eX c #F9DBC5",
"rX c #EBE4DD",
"tX c #FEEFDD",
"yX c #CACCE9",
"uX c #D4DAE6",
"iX c #CBD5F2",
"pX c #E3DBE2",
/* pixels */
"A.A.A.A.A.A.A.A.A.A.A.A.A.A.A.A.A.A.A.A.A.A.A.A.A.A.A.A.A.A.A.A.A.A.A.A.A.A.A.A.A.A.A.A.A.A.A.A.A.A.",
"A.A.A.A.A.A.A.A.A.A.A.A.A.A.A.A.A.A.A.A.A.A.A.A.A.A.A.A.A.A.A.A.A.A.A.A.A.A.A.A.A.A.A.A.A.A.A.A.A.A.",
"A.A.A.A.A.A.A.A.A.A.A.A.A.A.A.A.A.A.A.A.A.A.A.A.A.A.A.A.A.A.A.A.A.A.A.A.A.A.A.A.A.A.A.A.A.A.A.A.A.A.",
"A.A.A.A.A.A.A.A.A.A.A.A.A.A.A.A.A.A.A.A.A.A.A.A.A.A.A.A.A.A.A.A.A.A.A.A.A.A.A.A.A.A.A.A.A.A.A.A.A.A.",
"A.A.A.A.A.A.A.A.A.A.A.A.A.A.A.A.A.A.A.A.A.A.A.A.A.A.A.A.A.A.A.A.A.A.A.A.A.A.A.A.A.A.A.A.A.A.A.A.A.A.",
"A.A.A.A.A.A.A.A.A.A.A.A.A.A.A.A.A.A.A.A.A.A.A.A.A.A.A.A.A.A.A.A.A.A.A.A.A.A.A.A.A.A.A.A.A.A.A.A.A.A.",
"A.A.A.A.A.A.A.A.A.A.A.A.A.A.A.A.A.A.A.A.A.A.A.A.A.A.A.A.A.A.A.A.A.A.A.A.A.A.A.A.A.A.A.A.A.A.A.A.A.A.",
"A.A.A.A.A.A.A.A.A.A.A.A.A.A.A.A.A.A.A.A.A.A.A.A.A.A.A.A.A.A.A.A.A.A.A.A.A.A.A.A.A.A.A.A.A.A.A.A.A.A.",
"A.A.A.A.A.A.A.A.A.A.A.A.A.A.A.A.A.A.A.A.A.A.A.A.A.A.A.A.A.A.A.A.A.A.A.A.A.A.A.A.A.A.A.A.A.A.A.A.A.A.",
"A.A.A.A.A.A.A.A.A.A.A.A.A.A.A.A.A.A.A.A.A.A.A.A.A.A.A.A.A.A.A.A.A.A.A.A.A.A.A.A.A.A.A.A.A.A.A.A.A.A.",
"A.A.A.A.A.A.A.A.A.A.A.A.A.A.A.A.A.A.A.A.$X.X.XXXXXXX.X.X$X=XA.A.A.A.A.A.A.A.A.A.A.A.A.A.A.A.A.A.A.A.",
"A.A.A.A.A.A.A.A.A.A.A.A.A.A.A.A.A.A.A.*XG.F.5.5.6.3.@.0.G.&X-XA.A.A.A.A.A.A.A.A.A.A.A.A.A.A.A.A.A.A.",
"A.A.A.A.A.A.A.A.A.A.A.A.A.A.A.A.=X&X@XG.K.-.&.$.:.:.*.-.3.F.@X:X=XA.A.A.A.A.A.A.A.A.A.A.A.A.A.A.A.A.",
"A.A.A.A.A.A.A.A.A.A.A.A.A.A.A.A.*XyX/.2.$.J R R R W [ ] ) -.P.yX:XA.A.A.A.A.A.A.A.A.A.A.A.A.A.A.A.A.",
"A.A.A.A.A.A.A.A.A.A.A.A.A.A.A.3X>XY.p.] } Q Q Q R Q } Y E ] 4.^.#X7X=XA.A.A.A.A.A.A.A.A.A.A.A.A.A.A.",
"A.A.A.A.A.A.A.A.A.A.A.A.A.A.=X@XJ.i.) ` Y Q Q Q T T T U L W &.4.^.#X;X=XA.A.A.A.A.A.A.A.A.A.A.A.A.A.",
"A.A.A.A.A.A.A.A.A.A.A.A.A.-X2XH.@.S ~ / I I I I U U T U I P K #.3.F.#X>XA.A.A.A.A.A.A.A.A.A.A.A.A.A.",
"A.A.A.A.A.A.A.A.A.A.A.=X-X@XJ.+.n z b ^ ^ L I I I U T Y P J D v v O.Y.+X-X=XA.A.A.A.A.A.A.A.A.A.A.A.",
"A.A.A.A.A.A.A.A.A.A.S.-X0X_.3.c , 2 k b G ` ' Y I L Y ] ] F x 3 2 5 X.Y.6X:XA.A.A.A.A.A.A.A.A.A.A.A.",
"A.A.A.A.A.A.A.A.A.A.-X>X_.s.( B v Z b k b F J W W J K H C z x B N N #.a./.@X-XS.A.A.A.A.A.A.A.A.A.A.",
"A.A.A.A.A.A.A.A.A.S.7X,Xs.:.J J { d.o., q z B A H  .C  .e 1 n t.,.{ J 1.4.OX:X=XA.A.A.A.A.A.A.A.A.A.",
"A.A.A.A.A.A.A.A.A.S.8X,X4.:.L E ,.f.X.< 1 3 9 4 5 5 5 1 < < n g.>.` E W 1._.0X=XA.A.A.A.A.A.A.A.A.A.",
"A.A.A.A.A.A.A.A.=X4X+X^.1.$.Q [ <.f.X.< 9 l l 4 5 j l q 0 < m x.>.' Q $.$.^.#X:X=XA.A.A.A.A.A.A.A.A.",
"A.A.A.A.A.A.A.S.4XyX^.4.:.W R [ <.d.o.9 V w.( ~ F D ( ;.X.9 Z l.>.P R Q :.K.,X:X-XS.A.A.A.A.A.A.A.A.",
"A.A.A.A.A.A.A.A.7XuXP.1.$.R R W ,.g.i.V q.u._ ^ G G ) t.d.o.q.g.<.' Y E W 3.Y.,X9XS.A.A.A.A.A.A.A.A.",
"A.A.A.A.A.A.A.A.7XpXI.&.K W W ) ,.g.c.z.z.l.7.^ ^ ^ _ y.v.z.g.x.>.' } T K #.a.wXiXS.A.A.A.A.A.A.A.A.",
"A.A.A.A.A.A.A.A.8XrXE.=.W W J ) *.=.q.r.q.q._ / ^ / _ 7.e.r.t.<.{ P U Q W -.L.wXiX=XA.A.A.A.A.A.A.A.",
"A.A.A.A.A.A.A.A.7XuXT.d.*.F N N Z S %.w.q.q.e.7.7.7.7.e.q.r.>.{ ' Y Y ! :.d.^.qX8XS.A.A.A.A.A.A.A.A.",
"A.A.A.A.A.A.A.A.=X4XqXW.;.n , , 0 Z w.f.f.v.x.x.u.u.u.u.l.l.t.{ :.,.} :.:.R.wX2X3XA.A.A.A.A.A.A.A.A.",
"A.A.A.A.A.A.A.A.A.3XqX'.M 7 % $ % 8 t M i.Q.Q.b.b.b.b.m.m.b.g.t.h.h.h.v.E.`.6X=XA.A.A.A.A.A.A.A.A.A.",
"A.A.A.A.A.A.A.A.A.=XuX(.8 + . . . + + & ..W.~.{.[.m.k.[.[.[.Q.!.}.|.|.eXtX9XA.A.A.A.A.A.A.A.A.A.A.A.",
"A.A.A.A.A.A.A.A.A.=XiXJ.w @       o o + = M s.[.[.].b.m.].[.W.!.+.s d D.rX8XA.A.A.A.A.A.A.A.A.A.A.A.",
"A.A.A.A.A.A.A.A.A.S.0X+Xp w o X X X o . $ 6 9.W.W.].m.M.M.M.'.T.y & * p J.oXS.A.A.A.A.A.A.A.A.A.A.A.",
"A.A.A.A.A.A.A.A.A.A.-X2X1XN.# O X @ @ + $ 6 9.!.[.Q.m.m.M.n.U.j.r @ o ; i B.5X=XA.A.A.A.A.A.A.A.A.A.",
"A.A.A.A.A.A.A.A.A.A.A.-X0X Xg g f p a y y | L.!.~.'.].b.n.k.0.s = o X - g B.3XS.A.A.A.A.A.A.A.A.A.A.",
"A.A.A.A.A.A.A.A.A.A.A.A.A.3X5X8X6X<X(.(.).).}.}.}.}.'.k.k.j.s & o X X u %XS.A.A.A.A.A.A.A.A.A.A.A.A.",
"A.A.A.A.A.A.A.A.A.A.A.A.A.S.3X3X5X&XoXoXoX@X@X1X1X<XJ.8.s y = @ @ # > N.4X=XA.A.A.A.A.A.A.A.A.A.A.A.",
"A.A.A.A.A.A.A.A.A.A.A.A.A.A.A.A.A.A.A.S.S.S.S.A.=X-X;Xh r > : > > u N.B.5X3XA.A.A.A.A.A.A.A.A.A.A.A.",
"A.A.A.A.A.A.A.A.A.A.A.A.A.A.A.A.A.A.A.A.A.S.A.A.A.S.=XZ.V.V.B.C.B.V.Z.S.S.S.A.A.A.A.A.A.A.A.A.A.A.A.",
"A.A.A.A.A.A.A.A.A.A.A.A.A.A.A.A.A.A.A.A.A.A.A.A.A.A.A.A.S.S.=X3X3X3X3XS.A.A.A.A.A.A.A.A.A.A.A.A.A.A.",
"A.A.A.A.A.A.A.A.A.A.A.A.A.A.A.A.A.A.A.A.A.A.A.A.A.A.A.A.A.A.A.A.A.A.A.A.A.A.A.A.A.A.A.A.A.A.A.A.A.A.",
"A.A.A.A.A.A.A.A.A.A.A.A.A.A.A.A.A.A.A.A.A.A.A.A.A.A.A.A.A.A.A.A.A.A.A.A.A.A.A.A.A.A.A.A.A.A.A.A.A.A.",
"A.A.A.A.A.A.A.A.A.A.A.A.A.A.A.A.A.A.A.A.A.A.A.A.A.A.A.A.A.A.A.A.A.A.A.A.A.A.A.A.A.A.A.A.A.A.A.A.A.A.",
"A.A.A.A.A.A.A.A.A.A.A.A.A.A.A.A.A.A.A.A.A.A.A.A.A.A.A.A.A.A.A.A.A.A.A.A.A.A.A.A.A.A.A.A.A.A.A.A.A.A.",
"A.A.A.A.A.A.A.A.A.A.A.A.A.A.A.A.A.A.A.A.A.A.A.A.A.A.A.A.A.A.A.A.A.A.A.A.A.A.A.A.A.A.A.A.A.A.A.A.A.A.",
"A.A.A.A.A.A.A.A.A.A.A.A.A.A.A.A.A.A.A.A.A.A.A.A.A.A.A.A.A.A.A.A.A.A.A.A.A.A.A.A.A.A.A.A.A.A.A.A.A.A.",
"A.A.A.A.A.A.A.A.A.A.A.A.A.A.A.A.A.A.A.A.A.A.A.A.A.A.A.A.A.A.A.A.A.A.A.A.A.A.A.A.A.A.A.A.A.A.A.A.A.A.",
"A.A.A.A.A.A.A.A.A.A.A.A.A.A.A.A.A.A.A.A.A.A.A.A.A.A.A.A.A.A.A.A.A.A.A.A.A.A.A.A.A.A.A.A.A.A.A.A.A.A.",
"A.A.A.A.A.A.A.A.A.A.A.A.A.A.A.A.A.A.A.A.A.A.A.A.A.A.A.A.A.A.A.A.A.A.A.A.A.A.A.A.A.A.A.A.A.A.A.A.A.A.",
"A.A.A.A.A.A.A.A.A.A.A.A.A.A.A.A.A.A.A.A.A.A.A.A.A.A.A.A.A.A.A.A.A.A.A.A.A.A.A.A.A.A.A.A.A.A.A.A.A.A."
};
