/* XPM */
static char *_03e73aa1029496ffb0304f632eaac00W3zBLvrQkBdNtvEj[] = {
/* columns rows colors chars-per-pixel */
"50 50 217 2 ",
"   c #050301",
".  c #0B0301",
"X  c #0B0A03",
"o  c #070C0A",
"O  c #140A04",
"+  c #1B1202",
"@  c #1B160B",
"#  c #0D1614",
"$  c #131514",
"%  c #240706",
"&  c #380801",
"*  c #271809",
"=  c #231414",
"-  c #342414",
";  c #181E23",
":  c #1A2322",
">  c #272A29",
",  c #252D36",
"<  c #383333",
"1  c #480C09",
"2  c #58190C",
"3  c #640603",
"4  c #69100F",
"5  c #641C0C",
"6  c #76190F",
"7  c #5A2308",
"8  c #752813",
"9  c #703514",
"0  c #4B3325",
"q  c #713728",
"w  c #594528",
"e  c #6F4A30",
"r  c #6A5736",
"t  c #2A3945",
"y  c #323B41",
"u  c #3A4350",
"i  c #3D5F7C",
"p  c #424252",
"a  c #796850",
"s  c #43576E",
"d  c #861D0D",
"f  c #831910",
"g  c #822313",
"h  c #8E3817",
"j  c #A43A1C",
"k  c #973B29",
"l  c #913E2E",
"z  c #A13E31",
"x  c #994627",
"c  c #8C4B31",
"v  c #A54426",
"b  c #B74A29",
"n  c #AE5125",
"m  c #A64A34",
"M  c #B35536",
"N  c #B86A3C",
"B  c #EB5A1D",
"V  c #FC551F",
"C  c #F4581D",
"Z  c #C8562A",
"A  c #D8592C",
"S  c #C54E32",
"D  c #C45432",
"F  c #D85C3A",
"G  c #EB5B24",
"H  c #E45C29",
"J  c #E95C2B",
"K  c #FD5522",
"L  c #F25B25",
"P  c #F95A23",
"I  c #F75729",
"U  c #FC522B",
"Y  c #F35C2A",
"T  c #F14F31",
"R  c #E35B31",
"E  c #ED5D32",
"W  c #E55B3A",
"Q  c #F45933",
"!  c #C1642D",
"~  c #DD622E",
"^  c #D8672D",
"/  c #C6623E",
"(  c #DB6434",
")  c #DB6A36",
"_  c #D37131",
"`  c #DC7139",
"'  c #EA6825",
"]  c #E2642D",
"[  c #EA642B",
"{  c #F5622A",
"}  c #E3732D",
"|  c #EC6332",
" . c #EA6738",
".. c #F36934",
"X. c #E7743A",
"o. c #F4763D",
"O. c #865159",
"+. c #9B735B",
"@. c #BC6C4D",
"#. c #B47645",
"$. c #B56E69",
"%. c #A77779",
"&. c #E85F41",
"*. c #CA6A48",
"=. c #DE6343",
"-. c #D56847",
";. c #C5794D",
":. c #D77344",
">. c #C76D5A",
",. c #D86853",
"<. c #CE7955",
"1. c #E46845",
"2. c #E67B46",
"3. c #EA744D",
"4. c #E57757",
"5. c #C97767",
"6. c #DB7C65",
"7. c #A3855A",
"8. c #AB8D64",
"9. c #B19C66",
"0. c #BB837C",
"q. c #D78650",
"w. c #E28244",
"e. c #E8864C",
"r. c #F28749",
"t. c #E7934F",
"y. c #F5924E",
"u. c #E78859",
"i. c #F28754",
"p. c #E99557",
"a. c #F69957",
"s. c #F5A35B",
"d. c #D38F6D",
"f. c #DA9C78",
"g. c #E38966",
"h. c #EA9967",
"j. c #F69862",
"k. c #ED9A7B",
"l. c #F39F74",
"z. c #D8B97B",
"x. c #FAA567",
"c. c #F9A36B",
"v. c #F7AC6A",
"b. c #F9A773",
"n. c #EEBF7D",
"m. c #FAB475",
"M. c #FABA77",
"N. c #FDBC7C",
"B. c #ECC57D",
"V. c #FAC277",
"C. c #476889",
"Z. c #4E7093",
"A. c #6B788B",
"S. c #567DA6",
"D. c #7077A7",
"F. c #8A7B88",
"G. c #5D86B5",
"H. c #658AB4",
"J. c #6393C8",
"K. c #6B9DD7",
"L. c #759ED9",
"P. c #73A2DA",
"I. c #72A7E3",
"U. c #75AFF4",
"Y. c #7AB4F9",
"T. c #78B6FE",
"R. c #7DB8FD",
"E. c #9A8C94",
"W. c #AD8A8F",
"Q. c #B68586",
"!. c #B1879F",
"~. c #9C8DAA",
"^. c #9E9EB7",
"/. c #AD8AA1",
"(. c #A98EA9",
"). c #A997A8",
"_. c #B799AA",
"`. c #A79FB6",
"'. c #D38B83",
"]. c #DF958A",
"[. c #D8AC84",
"{. c #DEB396",
"}. c #EABC87",
"|. c #F5BE87",
" X c #EAB891",
".X c #F4BD98",
"XX c #C79EA8",
"oX c #DFB7A4",
"OX c #C2A9B9",
"+X c #EEAEA8",
"@X c #ECC485",
"#X c #FBC486",
"$X c #F6CA92",
"%X c #F2C2A9",
"&X c #FDD8B0",
"*X c #959BC4",
"=X c #95A3C8",
"-X c #8BA8D7",
";X c #ADABCA",
":X c #B7BDD5",
">X c #84ACE5",
",X c #8BB1E5",
"<X c #99B6E5",
"1X c #87B5F2",
"2X c #84BBFC",
"3X c #8CBDFB",
"4X c #A3B6E1",
"5X c #BDC1D4",
"6X c #8DC0FC",
"7X c #97C2F7",
"8X c #B6C8EB",
"9X c #A7C7F5",
"0X c #C5C3D6",
"qX c #DED3D6",
"wX c #EED0C3",
"eX c #E9CBD3",
"rX c #C7D3F1",
/* pixels */
"T.T.T.T.T.T.T.T.T.T.T.T.T.T.T.T.T.T.T.T.T.T.T.T.T.T.T.T.T.T.T.T.T.T.T.T.T.T.T.T.T.T.T.T.T.T.T.T.T.T.",
"T.T.T.T.T.T.T.T.T.T.T.T.T.T.T.T.T.T.T.T.T.T.T.T.T.T.T.T.T.T.T.T.T.T.T.T.T.T.T.T.T.T.T.T.T.T.T.T.T.T.",
"T.T.T.T.T.T.T.T.T.T.T.T.T.T.T.T.T.T.T.T.T.T.T.T.T.T.T.T.T.T.T.T.T.T.T.T.T.T.T.T.T.T.T.T.T.T.T.T.T.T.",
"T.T.T.T.T.T.T.T.T.T.T.T.T.T.T.T.T.T.T.T.T.T.T.T.T.T.T.T.T.T.T.T.T.T.T.T.T.T.T.T.T.T.T.T.T.T.T.T.T.T.",
"T.T.T.T.T.T.T.T.T.T.T.T.T.T.T.T.T.T.T.T.T.T.T.T.T.T.T.T.T.T.T.T.T.T.T.T.T.T.T.T.T.T.T.T.T.T.T.T.T.T.",
"T.T.T.T.T.T.T.T.T.T.T.T.T.T.T.T.T.T.T.T.T.T.T.T.T.T.T.T.T.T.T.T.T.T.T.T.T.T.T.T.T.T.T.T.T.T.T.T.T.T.",
"T.T.T.T.T.T.T.T.T.T.T.T.T.T.T.T.T.T.T.T.T.T.T.T.T.T.T.T.T.T.T.T.T.T.T.T.T.T.T.T.T.T.T.T.T.T.T.T.T.T.",
"T.T.T.T.T.T.T.T.T.T.T.T.T.T.T.T.T.T.T.T.T.T.T.T.T.T.T.T.T.T.T.T.T.T.T.T.T.T.T.T.T.T.T.T.T.T.T.T.T.T.",
"T.T.T.T.T.T.T.T.T.T.T.T.T.T.T.T.T.T.T.T.T.T.T.T.T.T.T.T.T.T.T.T.T.T.T.T.T.T.T.T.T.T.T.T.T.T.T.T.T.T.",
"T.T.T.T.T.T.T.T.T.T.T.T.T.T.T.T.T.T.T.T.T.T.T.T.T.T.T.T.T.T.T.T.T.T.T.T.T.T.T.T.T.T.T.T.T.T.T.T.T.T.",
"T.T.T.T.T.T.T.T.T.T.T.T.T.T.T.T.T.T.T.T.T.T.T.T.T.T.T.Y.T.T.T.T.T.T.T.T.T.T.T.T.T.T.T.T.T.T.T.T.T.T.",
"T.T.T.T.T.T.T.T.T.T.T.T.T.T.T.T.T.T.T.>X~./.!.!./././.).).^.>XT.T.T.T.T.T.T.T.T.T.T.T.T.T.T.T.T.T.T.",
"T.T.T.T.T.T.T.T.T.T.T.T.T.T.T.T.T.T.Y.*X,.W T T U ..| ] ` q.=XT.Y.R.T.T.T.T.T.T.T.T.T.T.T.T.T.T.T.T.",
"T.T.T.T.T.T.T.T.T.T.T.T.T.T.T.T.-X`.W.>.W Q U T U I { B ^ :.0.^.1XY.T.T.T.T.T.T.T.T.T.T.T.T.T.T.T.T.",
"T.T.T.T.T.T.T.T.T.T.T.T.T.T.T.T.*X0.,.J Q U U K K U P C H ^ *.Q.;X<X2XR.T.T.T.T.T.T.T.T.T.T.T.T.T.T.",
"T.T.T.T.T.T.T.T.T.T.T.T.T.T.T.T.E./ ( E I K K V V V C C G ~ -.@.F.`.4X3XT.T.T.T.T.T.T.T.T.T.T.T.T.T.",
"T.T.T.T.T.T.T.T.T.T.T.T.T.T.L.D.O.j Z R [ L P P P V P Y H A v x l F.;X4X3X2XT.T.T.T.T.T.T.T.T.T.T.T.",
"T.T.T.T.T.T.T.T.T.T.T.T.T.T.D.4 3 4 j Z ~ ..{ L C L Y ..A b d 3 3 c 5.OX8X2XT.T.T.T.T.T.T.T.T.T.T.T.",
"T.T.T.T.T.T.T.T.T.T.T.T.U.~.%.k m m k h n Z ( H R R A D j h v m v M >.'.OX<X2XT.T.T.T.T.T.T.T.T.T.T.",
"T.T.T.T.T.T.T.T.T.T.T.U.*X>.F -.g.d.e 7 9 x M Z S S b l 8 5 @.u.:.=.( ,.'.:X3X2XT.T.T.T.T.T.T.T.T.T.",
"T.T.T.T.T.T.T.T.T.T.T.(.5.=.W 1.g.d.9 & 7 7 6 6 f f 6 5 1 2 ;.p.` ] ] 1.6.wX8XT.T.T.T.T.T.T.T.T.T.T.",
"T.T.T.T.T.T.T.T.T.Y.T.Q.] J [  .d.'.e - 9 9 8 8 d d g 8 2 7 ;.a.` ' Y | 4.+X5X2XT.T.T.T.T.T.T.T.T.T.",
"T.T.T.T.T.T.T.T.T.Y.Y.Q.[ B G | u.f.e 9 #.N ! Z Z S *.d.c 8 :.t.} { { E 1.5._.2XR.T.T.T.T.T.T.T.T.T.",
"T.T.T.T.T.T.T.T.T.>X=X5.' L L ..i.l.;.N d.t._ ^ A  .2.l.q.N t.y.' ' P E =.5._.3X2XT.T.T.T.T.T.T.T.T.",
"T.T.T.T.T.T.T.T.T.-XW.<.[ L { ..3.a.h.v.M.p._ ^ ] X.i.b.l.j.x.y.] B P E =.$._.9X3XT.T.T.T.T.T.T.T.T.",
"T.T.T.T.T.T.T.T.T.>X=X$.A Y I L o.r.e.t.t.w._ ` ) ) X.i.r.2.3.o.Y Y I E 1.5.XX9X2XT.T.T.T.T.T.T.T.T.",
"T.T.T.T.T.T.T.T.T.Y.1XW.F W Q J [ X.X.w.w.w.w.2.2.:.2.i.2.2.o...W Q Q &.4.].OX3X2XT.T.T.T.T.T.T.T.T.",
"T.T.T.T.T.T.T.T.T.T.Y._.6.3.1. .X.X.r.a.v.x.x.c.c.c.x.x.x.a.3.1.W &.&.3.6.+X0X3XT.T.T.T.T.T.T.T.T.T.",
"T.T.T.T.T.T.T.T.T.T.T.=XXX].k.b.p.t.s.v.M.M.m.m.N.N.m.m.m.b.h.*.k k z 6.+XeX8XT.T.T.T.T.T.T.T.T.T.T.",
"T.T.T.T.T.T.T.T.T.T.T.6X7XqX&X&X$XM.V.V.V.N.M.|.#X#X#XB.n.}.[.+.1 & 1 F.eXrX9XT.T.T.T.T.T.T.T.T.T.T.",
"T.T.T.T.T.T.T.T.T.T.Y.7X,XH.a a 9.z.B.V.M.V.#X|.|.#X@Xz.7.r e 0 % O % q F.<X6XT.T.T.T.T.T.T.T.T.T.T.",
"T.T.T.T.T.T.T.T.T.R.Y.P.H.< @ + r 9.z.@X|.|.#X#X}.}.z.9.w + X X     o = p K.2XT.T.T.T.T.T.T.T.T.T.T.",
"T.T.T.T.T.T.T.T.T.T.T.Z.t # o X * w 8.}.}.|.|..X.X[.7.0 * X X X       $ u K.T.T.T.T.T.T.T.T.T.T.T.T.",
"T.T.T.T.T.T.T.T.T.T.T.i # o     . * r 8.[. X X$X.X{.+.- + X X o X o $ y C.I.T.T.T.T.T.T.T.T.T.T.T.T.",
"T.T.T.T.T.T.T.T.T.T.T.i ; o     . . * w Q.{.%X%X%XoX8.- + X o # # # > S.U.T.T.T.T.T.T.T.T.T.T.T.T.T.",
"T.T.T.T.T.T.T.T.T.T.T.J.i , $   . O * - a E.0X5X:X4X*XA.Z.C.C.C.C.C.S.K.T.T.T.T.T.T.T.T.T.T.T.T.T.T.",
"T.T.T.T.T.T.T.T.T.T.T.T.I.s , : ; : > > < A.7X6X2X2X2X2X2X2X2XR.T.T.T.T.T.T.T.T.T.T.T.T.T.T.T.T.T.T.",
"T.T.T.T.T.T.T.T.T.T.T.T.U.J.G.G.G.H.G.H.H.P.2XT.R.R.R.T.R.R.T.T.T.T.T.T.T.T.T.T.T.T.T.T.T.T.T.T.T.T.",
"T.T.T.T.T.T.T.T.T.T.T.T.T.T.T.R.R.R.R.2XR.R.T.T.T.T.T.T.T.T.T.T.T.T.T.T.T.T.T.T.T.T.T.T.T.T.T.T.T.T.",
"T.T.T.T.T.T.T.T.T.T.T.T.T.T.T.T.T.T.T.T.T.T.T.T.T.T.T.T.T.T.T.T.T.T.T.T.T.T.T.T.T.T.T.T.T.T.T.T.T.T.",
"T.T.T.T.T.T.T.T.T.T.T.T.T.T.T.T.T.T.T.T.T.T.T.T.T.T.T.T.T.T.T.T.T.T.T.T.T.T.T.T.T.T.T.T.T.T.T.T.T.T.",
"T.T.T.T.T.T.T.T.T.T.T.T.T.T.T.T.T.T.T.T.T.T.T.T.T.T.T.T.T.T.T.T.T.T.T.T.T.T.T.T.T.T.T.T.T.T.T.T.T.T.",
"T.T.T.T.T.T.T.T.T.T.T.T.T.T.T.T.T.T.T.T.T.T.T.T.T.T.T.T.T.T.T.T.T.T.T.T.T.T.T.T.T.T.T.T.T.T.T.T.T.T.",
"T.T.T.T.T.T.T.T.T.T.T.T.T.T.T.T.T.T.T.T.T.T.T.T.T.T.T.T.T.T.T.T.T.T.T.T.T.T.T.T.T.T.T.T.T.T.T.T.T.T.",
"T.T.T.T.T.T.T.T.T.T.T.T.T.T.T.T.T.T.T.T.T.T.T.T.T.T.T.T.T.T.T.T.T.T.T.T.T.T.T.T.T.T.T.T.T.T.T.T.T.T.",
"T.T.T.T.T.T.T.T.T.T.T.T.T.T.T.T.T.T.T.T.T.T.T.T.T.T.T.T.T.T.T.T.T.T.T.T.T.T.T.T.T.T.T.T.T.T.T.T.T.T.",
"T.T.T.T.T.T.T.T.T.T.T.T.T.T.T.T.T.T.T.T.T.T.T.T.T.T.T.T.T.T.T.T.T.T.T.T.T.T.T.T.T.T.T.T.T.T.T.T.T.T.",
"T.T.T.T.T.T.T.T.T.T.T.T.T.T.T.T.T.T.T.T.T.T.T.T.T.T.T.T.T.T.T.T.T.T.T.T.T.T.T.T.T.T.T.T.T.T.T.T.T.T.",
"T.T.T.T.T.T.T.T.T.T.T.T.T.T.T.T.T.T.T.T.T.T.T.T.T.T.T.T.T.T.T.T.T.T.T.T.T.T.T.T.T.T.T.T.T.T.T.T.T.T.",
"T.T.T.T.T.T.T.T.T.T.T.T.T.T.T.T.T.T.T.T.T.T.T.T.T.T.T.T.T.T.T.T.T.T.T.T.T.T.T.T.T.T.T.T.T.T.T.T.T.T."
};
