/* XPM */
static char *_abac13c7689413f97e427dc83b46393q3Lv7eSY1NqLrYOJ[] = {
/* columns rows colors chars-per-pixel */
"50 50 224 2 ",
"   c #080704",
".  c #0C0404",
"X  c #0C0A00",
"o  c #130302",
"O  c #170B0B",
"+  c #0C1102",
"@  c #1D1605",
"#  c #1A1515",
"$  c #260203",
"%  c #380906",
"&  c #23150D",
"*  c #231817",
"=  c #311213",
"-  c #332810",
";  c #1E1F24",
":  c #231E20",
">  c #1F212F",
",  c #2F2A27",
"<  c #303136",
"1  c #450201",
"2  c #4A0802",
"3  c #580503",
"4  c #461C0B",
"5  c #5D1D0C",
"6  c #680303",
"7  c #7C1E0E",
"8  c #50301C",
"9  c #682207",
"0  c #6B2218",
"q  c #772418",
"w  c #473629",
"e  c #784517",
"r  c #544830",
"t  c #70512B",
"y  c #776C3C",
"u  c #2D384E",
"i  c #3A4A69",
"p  c #3D5471",
"a  c #4D4F4F",
"s  c #445C79",
"d  c #4B627D",
"f  c #5A697B",
"g  c #851E15",
"h  c #8A2818",
"j  c #8C351B",
"k  c #97381B",
"l  c #AA391C",
"z  c #843729",
"x  c #993727",
"c  c #9D3C25",
"v  c #AE3629",
"b  c #AB461C",
"n  c #944B31",
"m  c #A34328",
"M  c #AE4F29",
"N  c #A8532D",
"B  c #A5583D",
"V  c #BA5437",
"C  c #B56539",
"Z  c #EB5B18",
"A  c #F65D17",
"S  c #FB5C1E",
"D  c #EC621E",
"F  c #C75A2C",
"G  c #DB5D26",
"H  c #D35928",
"J  c #D35A33",
"K  c #D55539",
"L  c #D6593B",
"P  c #E85823",
"I  c #EC5B24",
"U  c #E45B2C",
"Y  c #EC5B2C",
"T  c #F35B22",
"R  c #F7572A",
"E  c #E85A36",
"W  c #E35E3B",
"Q  c #F65931",
"!  c #F55D33",
"~  c #C96129",
"^  c #DB632A",
"/  c #DB692E",
"(  c #DE702A",
")  c #CB653D",
"_  c #D96637",
"`  c #DD7734",
"'  c #EB6325",
"]  c #E56728",
"[  c #F36024",
"{  c #E36433",
"}  c #EB6332",
"|  c #EB6935",
" . c #E76839",
".. c #E6793A",
"X. c #90494A",
"o. c #AA5341",
"O. c #B55D46",
"+. c #937657",
"@. c #A9684C",
"#. c #B97348",
"$. c #B36950",
"%. c #A97777",
"&. c #CF5B44",
"*. c #EA5741",
"=. c #C66649",
"-. c #DA6943",
";. c #D9764A",
":. c #C96B56",
">. c #DA6954",
",. c #CE7457",
"<. c #D77657",
"1. c #D3745C",
"2. c #E66846",
"3. c #E77A47",
"4. c #E76A53",
"5. c #F37052",
"6. c #CA6B67",
"7. c #DF6F60",
"8. c #CD7C63",
"9. c #D3766D",
"0. c #C77A72",
"q. c #BC804E",
"w. c #918574",
"e. c #B59864",
"r. c #AD9078",
"t. c #CE8E58",
"y. c #EA8544",
"u. c #F09146",
"i. c #F0944B",
"p. c #E98C58",
"a. c #EB9455",
"s. c #F39156",
"d. c #FFA95C",
"f. c #D3836A",
"g. c #D88C74",
"h. c #EC8266",
"j. c #E99666",
"k. c #F69A65",
"l. c #EF9477",
"z. c #C8A574",
"x. c #D3A97D",
"c. c #DFB27B",
"v. c #EAA569",
"b. c #F8A764",
"n. c #EAB86D",
"m. c #FFB469",
"M. c #F5AA72",
"N. c #E5BB7A",
"B. c #FBB877",
"V. c #ECC17B",
"C. c #FCC074",
"Z. c #F6C279",
"A. c #445F80",
"S. c #546787",
"D. c #537196",
"F. c #787E85",
"G. c #6D7B94",
"H. c #A07F8C",
"J. c #6D829F",
"K. c #5A81B6",
"L. c #6685AD",
"P. c #6A8AB0",
"I. c #6493CD",
"U. c #769CCA",
"Y. c #6899D5",
"T. c #6EA5E6",
"R. c #7FAEEC",
"E. c #75B0F6",
"W. c #7DB3F4",
"Q. c #78B6FE",
"!. c #7DB8FD",
"~. c #AC8789",
"^. c #BB8A84",
"/. c #B0988D",
"(. c #A88B95",
"). c #B38B96",
"_. c #B2919B",
"`. c #969AB9",
"'. c #B395AB",
"]. c #A896B4",
"[. c #ABA2B3",
"{. c #C18886",
"}. c #C9958F",
"|. c #D7BA8A",
" X c #EDBD83",
".X c #E9BB88",
"XX c #F3BA84",
"oX c #EABB9C",
"OX c #C096A2",
"+X c #C5BAA2",
"@X c #D4BBB7",
"#X c #E7BCB0",
"$X c #E9C487",
"%X c #FBC685",
"&X c #ECC393",
"*X c #F6C593",
"=X c #CFC3B4",
"-X c #8C9FCB",
";X c #A39EC0",
":X c #99A2CC",
">X c #8AA6DD",
",X c #8BA9DE",
"<X c #97A9D2",
"1X c #92A9D7",
"2X c #9DB4DA",
"3X c #B1B9CD",
"4X c #A3B8D3",
"5X c #89ABE3",
"6X c #86AEE8",
"7X c #81B0EE",
"8X c #8EB9EF",
"9X c #95BBEA",
"0X c #82B6F5",
"qX c #89BAF6",
"wX c #84BBFC",
"eX c #95BEF1",
"rX c #A0B9E6",
"tX c #CEBAC3",
"yX c #97C2FA",
"uX c #A1C1F2",
"iX c #CDC0C3",
"pX c #ECD2D7",
"aX c #C4D4F3",
"sX c #E2DAE8",
/* pixels */
"Q.Q.Q.Q.Q.Q.Q.Q.Q.Q.Q.Q.Q.Q.Q.Q.Q.Q.Q.Q.Q.Q.Q.Q.Q.Q.Q.Q.Q.Q.Q.Q.Q.Q.Q.Q.Q.Q.Q.Q.Q.Q.Q.Q.Q.Q.Q.Q.Q.Q.",
"Q.Q.Q.Q.Q.Q.Q.Q.Q.Q.Q.Q.Q.Q.Q.Q.Q.Q.Q.Q.Q.Q.Q.Q.Q.Q.Q.Q.Q.Q.Q.Q.Q.Q.Q.Q.Q.Q.Q.Q.Q.Q.Q.Q.Q.Q.Q.Q.Q.Q.",
"Q.Q.Q.Q.Q.Q.Q.Q.Q.Q.Q.Q.Q.Q.Q.Q.Q.Q.Q.Q.Q.Q.Q.Q.Q.Q.Q.Q.Q.Q.Q.Q.Q.Q.Q.Q.Q.Q.Q.Q.Q.Q.Q.Q.Q.Q.Q.Q.Q.Q.",
"Q.Q.Q.Q.Q.Q.Q.Q.Q.Q.Q.Q.Q.Q.Q.Q.Q.Q.Q.Q.Q.Q.Q.Q.Q.Q.Q.Q.Q.Q.Q.Q.Q.Q.Q.Q.Q.Q.Q.Q.Q.Q.Q.Q.Q.Q.Q.Q.Q.Q.",
"Q.Q.Q.Q.Q.Q.Q.Q.Q.Q.Q.Q.Q.Q.Q.Q.Q.Q.Q.Q.Q.Q.Q.Q.Q.Q.Q.Q.Q.Q.Q.Q.Q.Q.Q.Q.Q.Q.Q.Q.Q.Q.Q.Q.Q.Q.Q.Q.Q.Q.",
"Q.Q.Q.Q.Q.Q.Q.Q.Q.Q.Q.Q.Q.Q.Q.Q.Q.Q.Q.Q.Q.Q.Q.Q.Q.Q.Q.Q.Q.Q.Q.Q.Q.Q.Q.Q.Q.Q.Q.Q.Q.Q.Q.Q.Q.Q.Q.Q.Q.Q.",
"Q.Q.Q.Q.Q.Q.Q.Q.Q.Q.Q.Q.Q.Q.Q.Q.Q.Q.Q.Q.Q.Q.Q.Q.Q.Q.Q.Q.Q.Q.Q.Q.Q.Q.Q.Q.Q.Q.Q.Q.Q.Q.Q.Q.Q.Q.Q.Q.Q.Q.",
"Q.Q.Q.Q.Q.Q.Q.Q.Q.Q.Q.Q.Q.Q.Q.Q.Q.Q.Q.Q.Q.Q.Q.Q.Q.Q.Q.Q.Q.Q.Q.Q.Q.Q.Q.Q.Q.Q.Q.Q.Q.Q.Q.Q.Q.Q.Q.Q.Q.Q.",
"Q.Q.Q.Q.Q.Q.Q.Q.Q.Q.Q.Q.Q.Q.Q.Q.Q.Q.Q.Q.Q.Q.Q.Q.Q.Q.Q.Q.Q.Q.Q.Q.Q.Q.Q.Q.Q.Q.Q.Q.Q.Q.Q.Q.Q.Q.Q.Q.Q.Q.",
"Q.Q.Q.Q.Q.Q.Q.Q.Q.Q.Q.Q.Q.Q.Q.Q.Q.Q.Q.Q.Q.Q.Q.Q.Q.Q.Q.Q.Q.Q.Q.Q.Q.Q.Q.Q.Q.Q.Q.Q.Q.Q.Q.Q.Q.Q.Q.Q.Q.Q.",
"Q.Q.Q.Q.Q.Q.Q.Q.Q.Q.Q.Q.Q.Q.Q.Q.Q.Q.Q.Q.Q.Q.Q.Q.Q.Q.Q.Q.Q.Q.Q.Q.Q.Q.Q.Q.Q.Q.Q.Q.Q.Q.Q.Q.Q.Q.Q.Q.Q.Q.",
"Q.Q.Q.Q.Q.Q.Q.Q.Q.Q.Q.Q.Q.Q.Q.Q.Q.Q.Q.Q.Q.Q.Q.>X'.-XQ.Q.Q.Q.Q.Q.Q.Q.Q.Q.Q.Q.Q.Q.Q.Q.Q.Q.Q.Q.Q.Q.Q.Q.",
"Q.Q.Q.Q.Q.Q.Q.Q.Q.Q.Q.Q.Q.Q.Q.Q.Q.Q.7X5X,X>X>X].7.).,X5X5X5X7XQ.Q.Q.Q.Q.Q.Q.Q.Q.Q.Q.Q.Q.Q.Q.Q.Q.Q.Q.",
"Q.Q.Q.Q.Q.Q.Q.Q.Q.Q.Q.Q.Q.Q.Q.Q.Q.Q.:X{.%.6.6.4.*.4.9.9.0.0.].Q.Q.Q.Q.Q.Q.Q.Q.Q.Q.Q.Q.Q.Q.Q.Q.Q.Q.Q.",
"Q.Q.Q.Q.Q.Q.Q.Q.Q.Q.Q.Q.Q.Q.Q.Q.W.1X_.;. .E Q R R Q ! ! W 4.{.:X6XQ.Q.Q.Q.Q.Q.Q.Q.Q.Q.Q.Q.Q.Q.Q.Q.Q.",
"Q.Q.Q.Q.Q.Q.Q.Q.Q.Q.Q.Q.Q.Q.Q.Q.,Xr.,.) } ! R R R R R R R W 4.0.:XQ.Q.Q.Q.Q.Q.Q.Q.Q.Q.Q.Q.Q.Q.Q.Q.Q.",
"Q.Q.Q.Q.Q.Q.Q.Q.Q.Q.Q.Q.Q.Q.Q.-X(.$.) ` ] D A A S S T T T Y -.:.H.`.R.Q.Q.Q.Q.Q.Q.Q.Q.Q.Q.Q.Q.Q.Q.Q.",
"Q.Q.Q.Q.Q.Q.Q.Q.Q.Q.Q.Q.Q.W.6XH.O.N V / ] Z Z A A A A A T U J V O.%.-XE.Q.Q.Q.Q.Q.Q.Q.Q.Q.Q.Q.Q.Q.Q.",
"Q.Q.Q.Q.Q.Q.Q.Q.Q.Q.Q.Q.Q.:X).X.q 7 k ~ ^ ] D D Z Z D [ ' P l g g z %.].W.Q.Q.Q.Q.Q.Q.Q.Q.Q.Q.Q.Q.Q.",
"Q.Q.Q.Q.Q.Q.Q.Q.Q.Q.Q.7X1X).:.x g j j b M ~ / ( ] G ^ ^ F l l h h h O.r.:X6XQ.Q.Q.Q.Q.Q.Q.Q.Q.Q.Q.Q.",
"Q.Q.Q.Q.Q.Q.Q.Q.Q.Q.Q.1X{.1.L K &.1.B 9 j N V ) ) L &.V c 7 c ;._ J _ >.g.;XQ.Q.Q.Q.Q.Q.Q.Q.Q.Q.Q.Q.",
"Q.Q.Q.Q.Q.Q.Q.Q.Q.Q.!.:X8.-.E W 4.l.@.2 5 0 z x x x x z q 3 m k.3.{ E 2.4.'.qXwXQ.Q.Q.Q.Q.Q.Q.Q.Q.Q.",
"Q.Q.Q.Q.Q.Q.Q.Q.Q.Q.0X;X<.E Q ! 3.l.@.% % 2 3 3 6 6 6 3 2 1 n M.y.] Y ! *.OXeXwXQ.Q.Q.Q.Q.Q.Q.Q.Q.Q.",
"Q.Q.Q.Q.Q.Q.Q.Q.Q.W.;X^.2.Y P } 3.l.@.4 e @.m c v v v o.n 5 n b.y.] I Y *.{.[.6XQ.Q.Q.Q.Q.Q.Q.Q.Q.Q.",
"Q.Q.Q.Q.Q.Q.Q.Q.Q.7X_.<.| I Z ] ..v.q.e #.j.;.L K E 4.7.8.n C k.y./ P U W 1.^.1XQ.Q.Q.Q.Q.Q.Q.Q.Q.Q.",
"Q.Q.Q.Q.Q.Q.Q.Q.Q.7X_.,.U I T ' ( k.v.t.j.k.3.E E *.5.l.M.l.j.b.y./ ] { K =.%.<XwXQ.Q.Q.Q.Q.Q.Q.Q.Q.",
"Q.Q.Q.Q.Q.Q.Q.Q.Q.R.).,.U I [ ' ( u.a.a.a.a.3._ E E 5.h.j.j.a.p.3./ { { L :.~.:XwX!.Q.Q.Q.Q.Q.Q.Q.Q.",
"Q.Q.Q.Q.Q.Q.Q.Q.Q.R.).1.{ I I ' ' ] ( ` ` ` ` ` W { L  .;.;.;._ _ ^ H _ ;.8.}.2XwXQ.Q.Q.Q.Q.Q.Q.Q.Q.",
"Q.Q.Q.Q.Q.Q.Q.Q.Q.W.:X_.<.-._  .| / ..i.i.i.i.i.s.s.a.a.j.p.,.=.m h h c =.g.@XrXwXQ.Q.Q.Q.Q.Q.Q.Q.Q.",
"Q.Q.Q.Q.Q.Q.Q.Q.Q.Q.!.<X}.f.h.3.y.y.i.d.d.m.m.m.B.B.B.B.M.t.#.B 0 1 1 0 o.}.pXuX!.Q.Q.Q.Q.Q.Q.Q.Q.Q.",
"Q.Q.Q.Q.Q.Q.Q.Q.Q.Q.!.qX3XtX#XoXXXv.b.m.C.C.B.B.B.XXZ.N.e.t 8 4 % $ $ % 8 ~.sXyXQ.Q.Q.Q.Q.Q.Q.Q.Q.Q.",
"Q.Q.Q.Q.Q.Q.Q.Q.Q.Q.Q.wXyX4X[./.z.N.V.Z.C.C.C.B.Z.XXV.e.y - @ X o o o o & (.aXyXQ.Q.Q.Q.Q.Q.Q.Q.Q.Q.",
"Q.Q.Q.Q.Q.Q.Q.Q.Q.Q.Q.Q.Q.L.a < t z..XV.n.n.Z.%X%X Xx.t @ + +       . O = G.yXwXQ.Q.Q.Q.Q.Q.Q.Q.Q.Q.",
"Q.Q.Q.Q.Q.Q.Q.Q.Q.Q.Q.T.K.p ; @ w e.|.%XV.V.V.%X%X$Xz.t @ X X X X   O u f U.wX!.Q.Q.Q.Q.Q.Q.Q.Q.Q.Q.",
"Q.Q.Q.Q.Q.Q.Q.Q.Q.Q.Q.I.i > . o - +.c.*X$XV.V.$X*X.Xz.t - & @ @ * : , f 9XwX!.!.Q.Q.Q.Q.Q.Q.Q.Q.Q.Q.",
"Q.Q.Q.Q.Q.Q.Q.Q.Q.Q.Q.I.i > . o @ w +.|.|.|.$X&X*XoXoX/.w.F.J.J.L.P.P.U.wXwX!.Q.Q.Q.Q.Q.Q.Q.Q.Q.Q.Q.",
"Q.Q.Q.Q.Q.Q.Q.Q.Q.Q.Q.Y.S.u #   O O r w.r.z.+X=X@X@XiX3X3X4X4XuX9XqXwXwXQ.Q.Q.Q.Q.Q.Q.Q.Q.Q.Q.Q.Q.Q.",
"Q.Q.Q.Q.Q.Q.Q.Q.Q.Q.Q.E.T.D.u ; + # : w r a U.8X8X8X8XqX8X0XW.W.wX!.Q.Q.Q.Q.Q.Q.Q.Q.Q.Q.Q.Q.Q.Q.Q.Q.",
"Q.Q.Q.Q.Q.Q.Q.Q.Q.Q.Q.Q.Q.I.D.A.p s d d d D.Y.Q.Q.Q.Q.Q.Q.Q.Q.Q.Q.Q.Q.Q.Q.Q.Q.Q.Q.Q.Q.Q.Q.Q.Q.Q.Q.Q.",
"Q.Q.Q.Q.Q.Q.Q.Q.Q.Q.Q.Q.Q.Q.Q.Q.Q.Q.Q.Q.Q.E.Q.Q.Q.Q.Q.Q.Q.Q.Q.Q.Q.Q.Q.Q.Q.Q.Q.Q.Q.Q.Q.Q.Q.Q.Q.Q.Q.Q.",
"Q.Q.Q.Q.Q.Q.Q.Q.Q.Q.Q.Q.Q.Q.Q.Q.Q.Q.Q.Q.Q.Q.Q.Q.Q.Q.Q.Q.Q.Q.Q.Q.Q.Q.Q.Q.Q.Q.Q.Q.Q.Q.Q.Q.Q.Q.Q.Q.Q.Q.",
"Q.Q.Q.Q.Q.Q.Q.Q.Q.Q.Q.Q.Q.Q.Q.Q.Q.Q.Q.Q.Q.Q.Q.Q.Q.Q.Q.Q.Q.Q.Q.Q.Q.Q.Q.Q.Q.Q.Q.Q.Q.Q.Q.Q.Q.Q.Q.Q.Q.Q.",
"Q.Q.Q.Q.Q.Q.Q.Q.Q.Q.Q.Q.Q.Q.Q.Q.Q.Q.Q.Q.Q.Q.Q.Q.Q.Q.Q.Q.Q.Q.Q.Q.Q.Q.Q.Q.Q.Q.Q.Q.Q.Q.Q.Q.Q.Q.Q.Q.Q.Q.",
"Q.Q.Q.Q.Q.Q.Q.Q.Q.Q.Q.Q.Q.Q.Q.Q.Q.Q.Q.Q.Q.Q.Q.Q.Q.Q.Q.Q.Q.Q.Q.Q.Q.Q.Q.Q.Q.Q.Q.Q.Q.Q.Q.Q.Q.Q.Q.Q.Q.Q.",
"Q.Q.Q.Q.Q.Q.Q.Q.Q.Q.Q.Q.Q.Q.Q.Q.Q.Q.Q.Q.Q.Q.Q.Q.Q.Q.Q.Q.Q.Q.Q.Q.Q.Q.Q.Q.Q.Q.Q.Q.Q.Q.Q.Q.Q.Q.Q.Q.Q.Q.",
"Q.Q.Q.Q.Q.Q.Q.Q.Q.Q.Q.Q.Q.Q.Q.Q.Q.Q.Q.Q.Q.Q.Q.Q.Q.Q.Q.Q.Q.Q.Q.Q.Q.Q.Q.Q.Q.Q.Q.Q.Q.Q.Q.Q.Q.Q.Q.Q.Q.Q.",
"Q.Q.Q.Q.Q.Q.Q.Q.Q.Q.Q.Q.Q.Q.Q.Q.Q.Q.Q.Q.Q.Q.Q.Q.Q.Q.Q.Q.Q.Q.Q.Q.Q.Q.Q.Q.Q.Q.Q.Q.Q.Q.Q.Q.Q.Q.Q.Q.Q.Q.",
"Q.Q.Q.Q.Q.Q.Q.Q.Q.Q.Q.Q.Q.Q.Q.Q.Q.Q.Q.Q.Q.Q.Q.Q.Q.Q.Q.Q.Q.Q.Q.Q.Q.Q.Q.Q.Q.Q.Q.Q.Q.Q.Q.Q.Q.Q.Q.Q.Q.Q.",
"Q.Q.Q.Q.Q.Q.Q.Q.Q.Q.Q.Q.Q.Q.Q.Q.Q.Q.Q.Q.Q.Q.Q.Q.Q.Q.Q.Q.Q.Q.Q.Q.Q.Q.Q.Q.Q.Q.Q.Q.Q.Q.Q.Q.Q.Q.Q.Q.Q.Q.",
"Q.Q.Q.Q.Q.Q.Q.Q.Q.Q.Q.Q.Q.Q.Q.Q.Q.Q.Q.Q.Q.Q.Q.Q.Q.Q.Q.Q.Q.Q.Q.Q.Q.Q.Q.Q.Q.Q.Q.Q.Q.Q.Q.Q.Q.Q.Q.Q.Q.Q."
};
