/* XPM */
static char *_6017d4489a343e0f69fada6db56e1696SQ8NpsmXUOpwt9c[] = {
/* columns rows colors chars-per-pixel */
"50 50 228 2 ",
"   c #020502",
".  c #090601",
"X  c #050906",
"o  c #0C0902",
"O  c #0C0C09",
"+  c #140C01",
"@  c #0D110D",
"#  c #191309",
"$  c #1A1716",
"%  c #3F0902",
"&  c #231306",
"*  c #231C18",
"=  c #302816",
"-  c #3C351D",
";  c #161F26",
":  c #1D242A",
">  c #1F303C",
",  c #262B2D",
"<  c #32302F",
"1  c #313438",
"2  c #440E04",
"3  c #5A0702",
"4  c #4D1108",
"5  c #591905",
"6  c #640501",
"7  c #701A0D",
"8  c #671A14",
"9  c #7B1811",
"0  c #4A381B",
"q  c #78280E",
"w  c #632715",
"e  c #7A3118",
"r  c #7B3124",
"t  c #55452F",
"y  c #6A5132",
"u  c #293843",
"i  c #3B4753",
"p  c #574E4B",
"a  c #575655",
"s  c #796356",
"d  c #4A5564",
"f  c #546679",
"g  c #7D6D6A",
"h  c #821F0F",
"j  c #8F3016",
"k  c #852F2B",
"l  c #933D27",
"z  c #A53F2B",
"x  c #944219",
"c  c #B0451A",
"v  c #984B2B",
"b  c #8E4633",
"n  c #964834",
"m  c #A74B2B",
"M  c #B44E34",
"N  c #A75633",
"B  c #AA6436",
"V  c #C7541E",
"C  c #EE5C1E",
"Z  c #F5591C",
"A  c #EC631D",
"S  c #C35826",
"D  c #D75E2A",
"F  c #C14F37",
"G  c #C55835",
"H  c #D55C38",
"J  c #F94F2A",
"K  c #E95D27",
"L  c #EC5D2B",
"P  c #F45525",
"I  c #FD5424",
"U  c #F45B25",
"Y  c #FE552B",
"T  c #F25A2B",
"R  c #FC5929",
"E  c #EA5435",
"W  c #E35B33",
"Q  c #EC5B33",
"!  c #F55732",
"~  c #D9692D",
"^  c #C7633D",
"/  c #DD6434",
"(  c #DA6837",
")  c #DC6B39",
"_  c #C77136",
"`  c #DC7A3A",
"'  c #E86629",
"]  c #EC632D",
"[  c #F6612B",
"{  c #E36332",
"}  c #ED6133",
"|  c #E5683C",
" . c #E6763A",
".. c #F7733D",
"X. c #957957",
"o. c #A8654A",
"O. c #B76947",
"+. c #AE6754",
"@. c #966163",
"#. c #B1776F",
"$. c #BC7A73",
"%. c #CB6247",
"&. c #D86A4A",
"*. c #DA7449",
"=. c #DC6B57",
"-. c #CE7E56",
";. c #D67A58",
":. c #E76747",
">. c #E87B46",
",. c #E67456",
"<. c #C87A67",
"1. c #DC7E64",
"2. c #CC7972",
"3. c #E2803D",
"4. c #F1843D",
"5. c #A8935D",
"6. c #988669",
"7. c #AC9367",
"8. c #B78678",
"9. c #D5894E",
"0. c #D98C5A",
"q. c #E58344",
"w. c #E98444",
"e. c #E68349",
"r. c #E88648",
"t. c #EA8850",
"y. c #E9985B",
"u. c #F99B5D",
"i. c #F3A15F",
"p. c #DC916C",
"a. c #CA8877",
"s. c #E58969",
"d. c #E8956A",
"f. c #F59766",
"g. c #EC9774",
"h. c #F19C7E",
"j. c #CAAC75",
"k. c #DBB87A",
"l. c #FAA464",
"z. c #FAA46A",
"x. c #F8A86A",
"c. c #F6B86E",
"v. c #F8A573",
"b. c #E7BF7E",
"n. c #FDB674",
"m. c #FBB975",
"M. c #EEC27E",
"N. c #F4C37B",
"B. c #FAC57F",
"V. c #507194",
"C. c #B77F8D",
"Z. c #5B86B8",
"A. c #6089B7",
"S. c #638BBA",
"D. c #6B91BC",
"F. c #6C97C8",
"G. c #6A9BD3",
"H. c #7AA2CD",
"J. c #7BAFEA",
"K. c #7DB4F6",
"L. c #78B6FE",
"P. c #7EB8FD",
"I. c #8D8F96",
"U. c #B28791",
"Y. c #B3929A",
"T. c #979ABA",
"R. c #AA96A9",
"E. c #B499A5",
"W. c #A49CBA",
"Q. c #94A3B2",
"!. c #B0ADB6",
"~. c #C98F8D",
"^. c #C99A89",
"/. c #D39787",
"(. c #EE9D8C",
"). c #F29B85",
"_. c #D3AA87",
"`. c #DEBC86",
"'. c #D5AE90",
"]. c #E7BC85",
"[. c #F1BB88",
"{. c #ECA799",
"}. c #E9BC99",
"|. c #F3BD97",
" X c #C59AA4",
".X c #C4B0B1",
"XX c #ECAEA3",
"oX c #EEB9A2",
"OX c #EDC281",
"+X c #F7C484",
"@X c #F6C197",
"#X c #FACBAC",
"$X c #F1CBBA",
"%X c #91A1CE",
"&X c #89A8D8",
"*X c #96A8D3",
"=X c #9DB5D9",
"-X c #B3AFCA",
";X c #A8B7DE",
":X c #B6BAD1",
">X c #85ADE7",
",X c #84B3EB",
"<X c #91B0E2",
"1X c #8EBCF5",
"2X c #83BBFC",
"3X c #8BBEFB",
"4X c #93BCF3",
"5X c #C4B8C6",
"6X c #CBBCCB",
"7X c #B9C2D9",
"8X c #97C2F4",
"9X c #99C4F8",
"0X c #ACC5EA",
"qX c #BAC9E6",
"wX c #A3C9F7",
"eX c #A8CBF8",
"rX c #B3CCF3",
"tX c #B7D1F4",
"yX c #D4C8CF",
"uX c #C9CEDE",
"iX c #FBD3C5",
"pX c #ECD0D0",
"aX c #F5E1DC",
"sX c #C8D3E6",
"dX c #CBD5ED",
"fX c #D3DEF5",
"gX c #E6DFE6",
"hX c #EFE6EE",
/* pixels */
"L.L.L.L.L.L.L.L.L.L.L.L.L.L.L.L.L.L.L.L.L.L.L.L.L.L.L.L.L.L.L.L.L.L.L.L.L.L.L.L.L.L.L.L.L.L.L.L.L.L.",
"L.L.L.L.L.L.L.L.L.L.L.L.L.L.L.L.L.L.L.L.L.L.L.L.L.L.L.L.L.L.L.L.L.L.L.L.L.L.L.L.L.L.L.L.L.L.L.L.L.L.",
"L.L.L.L.L.L.L.L.L.L.L.L.L.L.L.L.L.L.L.L.L.L.L.L.L.L.L.L.L.L.L.L.L.L.L.L.L.L.L.L.L.L.L.L.L.L.L.L.L.L.",
"L.L.L.L.L.L.L.L.L.L.L.L.L.L.L.L.L.L.L.L.L.L.L.L.L.L.L.L.L.L.L.L.L.L.L.L.L.L.L.L.L.L.L.L.L.L.L.L.L.L.",
"L.L.L.L.L.L.L.L.L.L.L.L.L.L.L.L.L.L.L.L.L.L.L.L.L.L.L.L.L.L.L.L.L.L.L.L.L.L.L.L.L.L.L.L.L.L.L.L.L.L.",
"L.L.L.L.L.L.L.L.L.L.L.L.L.L.L.L.L.L.L.L.L.L.L.L.L.L.L.L.L.L.L.L.L.L.L.L.L.L.L.L.L.L.L.L.L.L.L.L.L.L.",
"L.L.L.L.L.L.L.L.L.L.L.L.L.L.L.L.L.L.L.L.L.L.L.L.L.L.L.L.L.L.L.L.L.L.L.L.L.L.L.L.L.L.L.L.L.L.L.L.L.L.",
"L.L.L.L.L.L.L.L.L.L.L.L.L.L.L.L.L.L.L.L.L.L.L.L.L.L.L.L.L.L.L.L.L.L.L.L.L.L.L.L.L.L.L.L.L.L.L.L.L.L.",
"L.L.L.L.L.L.L.L.L.L.L.L.L.L.L.L.L.L.L.L.L.L.L.L.L.L.L.L.L.L.L.L.L.L.L.L.L.L.L.L.L.L.L.L.L.L.L.L.L.L.",
"L.L.L.L.L.L.L.L.L.L.L.L.L.L.L.L.L.L.L.L.L.L.L.L.L.L.L.L.L.L.L.L.L.L.L.L.L.L.L.L.L.L.L.L.L.L.L.L.L.L.",
"L.L.L.L.L.L.L.L.L.L.L.L.L.L.L.L.L.L.L.L.L.L.,X>X&X%X%X>XL.L.L.L.L.L.L.L.L.L.L.L.L.L.L.L.L.L.L.L.L.L.",
"L.L.L.L.L.L.L.L.L.L.L.L.L.L.L.L.L.L.L.L.L.K.>XT.C.2.$.%XL.L.L.L.L.L.L.L.L.L.L.L.L.L.L.L.L.L.L.L.L.L.",
"L.L.L.L.L.L.L.L.L.L.L.L.L.L.L.L.L.L.>XW.R.C.C.2.=.:.:.U.R.R.%XL.L.L.L.L.L.L.L.L.L.L.L.L.L.L.L.L.L.L.",
"L.L.L.L.L.L.L.L.L.L.L.L.L.L.L.L.K.K.W.1.&.E E E E ! ! } / *.Y.K.P.P.L.L.L.L.L.L.L.L.L.L.L.L.L.L.L.L.",
"L.L.L.L.L.L.L.L.L.L.L.L.L.L.L.L.>XE.2.H Q ! ! Y J Y R L ] { <.Y.*X4XP.L.L.L.L.L.L.L.L.L.L.L.L.L.L.L.",
"L.L.L.L.L.L.L.L.L.L.L.L.L.L.L.J.T.<.) L T Y Y Y J I R U K D &.<.E.*X4X2XL.L.L.L.L.L.L.L.L.L.L.L.L.L.",
"L.L.L.L.L.L.L.L.L.L.L.L.L.L.L.%X#.G D ] U Z I I I I R P K / ^ O.#.U.6XwXP.L.L.L.L.L.L.L.L.L.L.L.L.L.",
"L.L.L.L.L.L.L.L.L.L.L.L.L.>XT.@.n l c ' K Z I I I I R ! { D M l l @.E.5X;X4X2XL.L.L.L.L.L.L.L.L.L.L.",
"L.L.L.L.L.L.L.L.L.L.P.P.2XW.2.k 6 6 j V D K [ R P J T | &.G j 6 3 8 +./.pXqX1X2XL.L.L.L.L.L.L.L.L.L.",
"L.L.L.L.L.L.L.L.L.L.2X<XW.$.%.M z m m j c V ~ ~ E D H G N j l N m m %.1.(.6XrX4XL.L.L.L.L.L.L.L.L.L.",
"L.L.L.L.L.L.L.L.P.2X3X-Xa.&.H H =.s.o.5 q x c M G F M n k 5 b y.9.) / :.,.}.gX8XP.L.L.L.L.L.L.L.L.L.",
"L.L.L.L.L.L.L.L.2X4X0X.X;./ W W ,.g.o.2 4 5 7 q 9 9 9 8 4 % b v.r.~ K ] :.{.aXrX3XL.L.L.L.L.L.L.L.L.",
"L.L.L.L.L.L.L.L.8X0X-X_.*.{ } } >.g.o.2 w e q h h h h r w 2 b x.w.' C K Q h.$XuXeX2XL.L.L.L.L.L.L.L.",
"L.L.L.L.L.L.L.L.9XsX^.;.) ] U T } f.O.5 B 9._ B S G %.0.+.w v l.4.A Z Z } =./.pXfX2XL.L.L.L.L.L.L.L.",
"L.L.L.L.L.L.L.L.wXuX~.*./ ' U T ..l.9.B 9.i.3.~ D H &.d.p.O.-.l.4.A Z Z ] *.a.yXdX2XL.L.L.L.L.L.L.L.",
"L.L.L.L.L.L.L.L.rXuXa.&.H L U [ ..u.x.x.i.y.3.~ D / >.f.v.v.x.l. .A Z Z L %.$.5XeXP.L.L.L.L.L.L.L.L.",
"L.L.L.L.L.L.L.L.eXuX/.=.Q Q P T ]  .w.r.r.w.` ( ~ |  .>.t.e.w. .' [ R ! E =.~.-XwXP.L.L.L.L.L.L.L.L.",
"L.L.L.L.L.L.L.L.eXuX{.1.:.Q Q Q } ~  .3.r.r.>.e.e.>.>.e.e.q. .] } } [ ! :.2. X;X8XP.L.L.L.L.L.L.L.L.",
"L.L.L.L.L.L.L.L.9XdXyXXX=.&.:.>. .~ 9.u.l.x.l.f.z.l.l.l.x.l.t.) ) :.:.:.,. X;X8XL.L.L.L.L.L.L.L.L.L.",
"L.L.L.L.L.L.L.L.3XwXfXpX{.(.(.h.g.y.i.c.m.m.n.n.m.m.c.c.m.m.x.d.g.).).(.{.:X8XP.L.L.L.L.L.L.L.L.L.L.",
"L.L.L.L.L.L.L.L.L.2XdXgXhXaXiX#X#X@XOXN.B.+X+XB.B.B.B.N.c.M.[.@X#XiXiXaXgXrXP.P.L.L.L.L.L.L.L.L.L.L.",
"L.L.L.L.L.L.L.L.L.2XeXfXhX.Xs s X.j.`.k.].+XOXM.+XN.N.M.M.M.].'.6.s @.I.qX4XL.L.L.L.L.L.L.L.L.L.L.L.",
"L.L.L.L.L.L.L.L.L.L.eXtXyXg $ # - 6.7.5.j.`.].].OX[.OXOXb.j.5.6.t # * d H.K.L.L.L.L.L.L.L.L.L.L.L.L.",
"L.L.L.L.L.L.L.L.L.P.tX!.a < @ o O = - 0 X.`.OX@X[.[.[.k.5.y 0 = $ . O u V.G.L.L.L.L.L.L.L.L.L.L.L.L.",
"L.L.L.L.L.L.L.L.L.P.tXQ.1 @ X       + # t X._.@X|.|.].7.y = + . X X X > f G.L.L.L.L.L.L.L.L.L.L.L.L.",
"L.L.L.L.L.L.L.L.L.P.eXQ.< O X     X X . # 0 8.}.#XoX^.y & o .   X X   > Z.G.L.L.L.L.L.L.L.L.L.L.L.L.",
"L.L.L.L.L.L.L.L.L.P.9X=XI.p $ X   X O O # - D.7X:X:X!.p # o . O O @ @ i H.J.L.L.L.L.L.L.L.L.L.L.L.L.",
"L.L.L.L.L.L.L.L.L.L.2X9XsXI.u : : : : , , p D.8X2X3X>Xf < : ; , : , 1 f 8X9XL.L.L.L.L.L.L.L.L.L.L.L.",
"L.L.L.L.L.L.L.L.L.L.P.8X9X&XF.S.A.S.S.S.S.F.J.L.P.P.K.G.Z.Z.Z.Z.S.S.D.G.2XP.L.L.L.L.L.L.L.L.L.L.L.L.",
"L.L.L.L.L.L.L.L.L.L.L.L.L.P.2X2X2XP.P.P.2XP.L.L.L.L.L.L.L.L.L.P.P.P.8XL.L.L.L.L.L.L.L.L.L.L.L.L.L.L.",
"L.L.L.L.L.L.L.L.L.L.L.L.L.L.P.L.L.L.L.L.L.L.L.L.L.L.L.L.L.L.L.L.L.L.L.L.L.L.L.L.L.L.L.L.L.L.L.L.L.L.",
"L.L.L.L.L.L.L.L.L.L.L.L.L.L.L.L.L.L.L.L.L.L.L.L.L.L.L.L.L.L.L.L.L.L.L.L.L.L.L.L.L.L.L.L.L.L.L.L.L.L.",
"L.L.L.L.L.L.L.L.L.L.L.L.L.L.L.L.L.L.L.L.L.L.L.L.L.L.L.L.L.L.L.L.L.L.L.L.L.L.L.L.L.L.L.L.L.L.L.L.L.L.",
"L.L.L.L.L.L.L.L.L.L.L.L.L.L.L.L.L.L.L.L.L.L.L.L.L.L.L.L.L.L.L.L.L.L.L.L.L.L.L.L.L.L.L.L.L.L.L.L.L.L.",
"L.L.L.L.L.L.L.L.L.L.L.L.L.L.L.L.L.L.L.L.L.L.L.L.L.L.L.L.L.L.L.L.L.L.L.L.L.L.L.L.L.L.L.L.L.L.L.L.L.L.",
"L.L.L.L.L.L.L.L.L.L.L.L.L.L.L.L.L.L.L.L.L.L.L.L.L.L.L.L.L.L.L.L.L.L.L.L.L.L.L.L.L.L.L.L.L.L.L.L.L.L.",
"L.L.L.L.L.L.L.L.L.L.L.L.L.L.L.L.L.L.L.L.L.L.L.L.L.L.L.L.L.L.L.L.L.L.L.L.L.L.L.L.L.L.L.L.L.L.L.L.L.L.",
"L.L.L.L.L.L.L.L.L.L.L.L.L.L.L.L.L.L.L.L.L.L.L.L.L.L.L.L.L.L.L.L.L.L.L.L.L.L.L.L.L.L.L.L.L.L.L.L.L.L.",
"L.L.L.L.L.L.L.L.L.L.L.L.L.L.L.L.L.L.L.L.L.L.L.L.L.L.L.L.L.L.L.L.L.L.L.L.L.L.L.L.L.L.L.L.L.L.L.L.L.L.",
"L.L.L.L.L.L.L.L.L.L.L.L.L.L.L.L.L.L.L.L.L.L.L.L.L.L.L.L.L.L.L.L.L.L.L.L.L.L.L.L.L.L.L.L.L.L.L.L.L.L."
};
