/* XPM */
static char *_f2fd58733614c5efa061834763dedfbTt3guILIDHHcoSz2[] = {
/* columns rows colors chars-per-pixel */
"50 50 190 2 ",
"   c None",
".  c #EEC408",
"X  c #F7CE00",
"o  c #F5CB05",
"O  c #FCCF03",
"+  c #FACD0F",
"@  c #F6D001",
"#  c #FBD200",
"$  c #FAD500",
"%  c #FBDB01",
"&  c #FCDA00",
"*  c #FCDD00",
"=  c #FCD00A",
"-  c #F8DC09",
";  c #F4C712",
":  c #F7CA12",
">  c #F6CF15",
",  c #F0C61D",
"<  c #F8D91F",
"1  c #FDE201",
"2  c #FCE202",
"3  c #FCE203",
"4  c #FCE501",
"5  c #FCE603",
"6  c #FDEA03",
"7  c #FCED06",
"8  c #F5E40C",
"9  c #F8E60D",
"0  c #FCED08",
"q  c #FDED0D",
"w  c #F8E416",
"e  c #FBE716",
"r  c #F4E910",
"t  c #F6EA11",
"y  c #FBEB14",
"u  c #FDED14",
"i  c #FBE31A",
"p  c #F9E61C",
"a  c #F7EE1E",
"s  c #FAE81E",
"d  c #FDF010",
"f  c #FBF316",
"g  c #FDF516",
"h  c #FDF719",
"j  c #FBF41C",
"k  c #FDF41C",
"l  c #FCF41D",
"z  c #FCFA1B",
"x  c #FEFC1A",
"c  c #FBFA1C",
"v  c #FEF91F",
"b  c #E9C420",
"n  c #E9C426",
"m  c #F5DE27",
"M  c #F9DE25",
"N  c #EFD13C",
"B  c #EEDB38",
"V  c #F1D530",
"C  c #F5D136",
"Z  c #FADF35",
"A  c #F7E020",
"S  c #FCEA21",
"D  c #FBEF26",
"F  c #F8E92E",
"G  c #FDF621",
"H  c #FBF625",
"J  c #FBF725",
"K  c #FDFC21",
"L  c #FDFD23",
"P  c #FCFB27",
"I  c #FDFD25",
"U  c #FDFE25",
"Y  c #FDFE26",
"T  c #F6F72B",
"R  c #FDF329",
"E  c #FCF12B",
"W  c #FDF62A",
"Q  c #FDF32E",
"!  c #FAF62C",
"~  c #FDF62C",
"^  c #FCF72C",
"/  c #FCF82A",
"(  c #FDFA2A",
")  c #FDFC29",
"_  c #FDFC2B",
"`  c #FCF92C",
"'  c #FDFC2C",
"]  c #FDFC2D",
"[  c #FDFC2E",
"{  c #F8E232",
"}  c #F9E733",
"|  c #FAE637",
" . c #FAE837",
".. c #F9EC39",
"X. c #FBEF39",
"o. c #FDF030",
"O. c #FCF132",
"+. c #F8F636",
"@. c #FDF734",
"#. c #F8F830",
"$. c #FCF933",
"%. c #FBF835",
"&. c #FCFA37",
"*. c #FDFA37",
"=. c #FEFB36",
"-. c #FEFB37",
";. c #FCF439",
":. c #FDF63A",
">. c #FDF83A",
",. c #FDFA3A",
"<. c #FDFC3A",
"1. c #FBF93F",
"2. c #FCF83D",
"3. c #FEFC3D",
"4. c #E9CA44",
"5. c #EED348",
"6. c #EFD748",
"7. c #E9CD5A",
"8. c #F6DE51",
"9. c #F2DA55",
"0. c #F0DC57",
"q. c #F9DE5C",
"w. c #F4E44B",
"e. c #FAE74B",
"r. c #FCEF4B",
"t. c #F9F242",
"y. c #FDF443",
"u. c #FBF345",
"i. c #FCF745",
"p. c #FDF547",
"a. c #FDF940",
"s. c #FDF844",
"d. c #F7F14D",
"f. c #FEF64B",
"g. c #FAF74D",
"h. c #FAF949",
"j. c #FDF849",
"k. c #FAEC53",
"l. c #F9EF52",
"z. c #F7E25B",
"x. c #F4F356",
"c. c #FBF55D",
"v. c #FCFB5F",
"b. c #F9E36F",
"n. c #F9E968",
"m. c #F7F06D",
"M. c #FAF76D",
"N. c #FBF96B",
"B. c #FBFB6D",
"V. c #F9E57D",
"C. c #FAEE78",
"Z. c #F9F473",
"A. c #FBF675",
"S. c #F7F478",
"D. c #F6F47E",
"F. c #F8F079",
"G. c #FCFC7D",
"H. c #F8E680",
"J. c #F7F384",
"K. c #F8F082",
"L. c #FBF687",
"P. c #FBF981",
"I. c #FCFB83",
"U. c #FAF986",
"Y. c #F2E79B",
"T. c #F6F592",
"R. c #F8F795",
"E. c #FAF892",
"W. c #FCFB93",
"Q. c #F8F895",
"!. c #FAFA9A",
"~. c #FBFC99",
"^. c #FCFCAA",
"/. c #FCFBAF",
"(. c #FBFDAE",
"). c #FCFCB0",
"_. c #FCFDBC",
"`. c #FCFCBE",
"'. c #FBFEC2",
"]. c #FBFDC7",
"[. c #FCFDCC",
"{. c #F6F7D5",
"}. c #FBFED2",
"|. c #FCFDD2",
" X c #FDFDD3",
".X c #F7F7D9",
"XX c #FDFDD9",
"oX c #FBFEDC",
"OX c #F9FAE5",
"+X c #FAFEE9",
/* pixels */
"                                                                                                    ",
"                                                                                                    ",
"                                                                                                    ",
"                                                                                                    ",
"                                                                                                    ",
"                                                                                                    ",
"                                                                                                    ",
"                                                                                                    ",
"                                                                                                    ",
"                                                                                                    ",
"                                                                                                    ",
"                                                                                                    ",
"                                                                                                    ",
"                                                                                                    ",
"                                                                                                    ",
"                                                D.0.                                                ",
"                                                !.9.                                                ",
"                                              T._.8.4.                                              ",
"                                              E. Xe.b                                               ",
"                                            S./.}.r.. 7.                                            ",
"                                          J.U.oX'.y.@ n Y.                                          ",
"                                  R.L.A.M.P.].+X(.@.3 o C q.b.V.H.                                  ",
"                              d.N.~.^.)._. XOX.XW./ t - # O = + : ; ,                               ",
"                                F u.I.).[.XX{.  B.H   8 1 * & $ X >                                 ",
"                                  } u <.v.G.Q.  h.j   t 6 5 3 % M                                   ",
"                                    | q v L #.  H f   a q 7 4 M                                     ",
"                                       .g x z T ) / +.! k 0 A                                       ",
"                                      F.k L I ) =.3.<.$.G 9 6.                                      ",
"                                      Z.h I I / =.2.s.2.^ w 5.                                      ",
"                                      c.z [ [ / ! =.j.f.:.s N                                       ",
"                                      g.[ <.^ y w S X.y.y.D V                                       ",
"                                      2.<.R i { n.C.k.X.:.^ m                                       ",
"                                      <.R { z.        K.l.O.p                                       ",
"                                    x.t.w.                m.X.B                                     ",
"                                                                                                    ",
"                                                                                                    ",
"                                                                                                    ",
"                                                                                                    ",
"                                                                                                    ",
"                                                                                                    ",
"                                                                                                    ",
"                                                                                                    ",
"                                                                                                    ",
"                                                                                                    ",
"                                                                                                    ",
"                                                                                                    ",
"                                                                                                    ",
"                                                                                                    ",
"                                                                                                    ",
"                                                                                                    "
};
