/* XPM */
static char *_5f74726b730455bc6fe53a3153afce4OQ97J3EOOPQqtXPm[] = {
/* columns rows colors chars-per-pixel */
"50 50 137 2 ",
"   c None",
".  c #182C06",
"X  c #193105",
"o  c #1D3E01",
"O  c #1E3C04",
"+  c #1F360B",
"@  c #1E310E",
"#  c #1E2D10",
"$  c #1E2E10",
"%  c #203C07",
"&  c #203B08",
"*  c #203A09",
"=  c #214702",
"-  c #204005",
";  c #204006",
":  c #438F03",
">  c #449103",
",  c #479703",
"<  c #489903",
"1  c #4A8B11",
"2  c #4CA302",
"3  c #4CA303",
"4  c #4DA402",
"5  c #4DA502",
"6  c #4FAB02",
"7  c #51AD03",
"8  c #51AD04",
"9  c #52AE04",
"0  c #53B301",
"q  c #52B002",
"w  c #59BA06",
"e  c #60AB1F",
"r  c #60AC1E",
"t  c #62BE14",
"y  c #63BC17",
"u  c #65BF17",
"i  c #62B61A",
"p  c #60B01C",
"a  c #62B21D",
"s  c #62B41C",
"d  c #63BA18",
"f  c #5E9E26",
"g  c #5C962B",
"h  c #5C922D",
"j  c #5D952D",
"k  c #5E982C",
"l  c #5B8A31",
"z  c #5B8B31",
"x  c #5B8A32",
"c  c #5D8F31",
"v  c #5C8C32",
"b  c #5C8D32",
"n  c #689D39",
"m  c #689E38",
"M  c #689F38",
"N  c #689E39",
"B  c #689F39",
"V  c #699F39",
"C  c #5EA323",
"Z  c #5FA126",
"A  c #60A723",
"S  c #60A624",
"D  c #6CBE26",
"F  c #6DBF27",
"G  c #6BB52B",
"H  c #6CB62C",
"J  c #6CB72C",
"K  c #6CBB28",
"L  c #6DBC28",
"P  c #6DBD28",
"I  c #68A136",
"U  c #68A137",
"Y  c #69A237",
"T  c #6AAB31",
"R  c #69A932",
"E  c #6AAA33",
"W  c #6AAD31",
"Q  c #6BAD31",
"!  c #69A038",
"~  c #69A039",
"^  c #59C002",
"/  c #5AC102",
"(  c #5DCA02",
")  c #5ECB02",
"_  c #64CB0D",
"`  c #64CA0E",
"'  c #64CC0C",
"]  c #66CE0E",
"[  c #66D707",
"{  c #67DD03",
"}  c #67DE02",
"|  c #67D807",
" . c #68DB07",
".. c #69DC07",
"X. c #63C112",
"o. c #63C510",
"O. c #64C512",
"+. c #64C513",
"@. c #64C214",
"#. c #65C415",
"$. c #66C912",
"%. c #6ECA1F",
"&. c #6ECB1F",
"*. c #6FCC1F",
"=. c #6FD11C",
"-. c #71DA17",
";. c #71DD15",
":. c #72DE15",
">. c #71DC17",
",. c #72DD17",
"<. c #71D71A",
"1. c #70D21C",
"2. c #72D81A",
"3. c #72D91A",
"4. c #72D81B",
"5. c #73DE18",
"6. c #69E103",
"7. c #69E402",
"8. c #72E70F",
"9. c #72E80F",
"0. c #73E90F",
"q. c #75F607",
"w. c #76FD03",
"e. c #76FF02",
"r. c #77FF02",
"t. c #76FF03",
"y. c #77FF03",
"u. c #75F807",
"i. c #76F807",
"p. c #75F609",
"a. c #76F709",
"s. c #72E115",
"d. c #73E215",
"f. c #72E810",
"g. c #73E910",
"h. c #6EC921",
"j. c #6FCA21",
/* pixels */
"                                                                                                    ",
"                                                                                                    ",
"                                                                                                    ",
"                                                                                                    ",
"                                                                                                    ",
"                                                                                                    ",
"                                                                                                    ",
"                                                                                                    ",
"                                                                                                    ",
"                                                                                                    ",
"                                                                                                    ",
"                                                                                                    ",
"                              1 i X.} } ` ' r r e e r t o.| :                                       ",
"                              w 4.j.y.y.;.;.~ ~ B ~ ~ D 1.a.5                                       ",
"                              ^ 5.h.r.r.-.;.I M B M m D =.a.3                                       ",
"                              ^ -.h.r.w.-.;.I M M M m D =.a.3                                       ",
"                              ^ 5.h.r.r.5.;.I ~ ~ I B P 1.a.5                                       ",
"                              6 #.a 7.6.X.O.c b b b b S d ..>                                       ",
"                              X O * O = % & @ # # # # * ; o .                                       ",
"                                0 u k  .$.S S x b b j s $.<                                         ",
"                                ) 4.W u.9.D G B B B T &.d.8                                         ",
"                                ( 4.T q.f.K G n B B T &.d.8                                         ",
"                                ( <.T q.8.K G n B M T h.d.8                                         ",
"                                ( <.T a.f.K G B M n T &.s.8                                         ",
"                                ( <.T q.8.K G n M M R &.:.7                                         ",
"                                ( <.T q.9.K G n M n R &.s.7                                         ",
"                                ( <.T q.9.K G n M n R &.s.8                                         ",
"                                ( <.T q.8.K G n M M R &.s.8                                         ",
"                                ( <.T q.9.K G n m m R &.s.8                                         ",
"                                ( <.T q.9.K G n m n R &.s.7                                         ",
"                                ( <.T q.8.K G n m m T h.s.7                                         ",
"                                ( <.T q.8.K G n U m T &.s.7                                         ",
"                                ( <.T q.9.K G n M n R &.s.7                                         ",
"                                ( <.T q.8.K G n M M R &.s.7                                         ",
"                                ( <.W q.9.K G B M M R &.s.7                                         ",
"                                ( <.T q.9.K G B M n R &.s.7                                         ",
"                                ) 4.Q u.g.P G ~ M M T j.d.7                                         ",
"                                7 u g | ` C f x l x h a O.,                                         ",
"                                                                                                    ",
"                                                                                                    ",
"                                                                                                    ",
"                                                                                                    ",
"                                                                                                    ",
"                                                                                                    ",
"                                                                                                    ",
"                                                                                                    ",
"                                                                                                    ",
"                                                                                                    ",
"                                                                                                    ",
"                                                                                                    "
};
