/* XPM */
static char *_e872ab6dcf1451ab2554242f6b6b4b3ljHawRCe7d8YnGNX[] = {
/* columns rows colors chars-per-pixel */
"50 54 239 2 ",
"   c None",
".  c #393100",
"X  c #4E3A1D",
"o  c #523A1A",
"O  c #533B17",
"+  c #5C2413",
"@  c #652806",
"#  c #6A3407",
"$  c #7B3518",
"%  c #722E19",
"&  c #5A2E25",
"*  c #4C3A2A",
"=  c #523622",
"-  c #5A382B",
";  c #663927",
":  c #743828",
">  c #652B29",
",  c #5B451C",
"<  c #594000",
"1  c #664816",
"2  c #6E5818",
"3  c #724D0E",
"4  c #5B4129",
"5  c #534431",
"6  c #5B4A36",
"7  c #674723",
"8  c #7B5B29",
"9  c #714032",
"0  c #6F4F2A",
"q  c #736331",
"w  c #5E5546",
"e  c #765C41",
"r  c #777056",
"t  c #862C17",
"y  c #81301F",
"u  c #8F2A10",
"i  c #8B342A",
"p  c #893527",
"a  c #9A3C39",
"s  c #903725",
"d  c #A43726",
"f  c #B83729",
"g  c #B73A34",
"h  c #DB3D18",
"j  c #D1350D",
"k  c #E62C14",
"l  c #FF2F1C",
"z  c #F62E1F",
"x  c #E23D1A",
"c  c #EE3C1B",
"v  c #E83715",
"b  c #FD351C",
"n  c #F33A1B",
"m  c #E8310F",
"M  c #D73C2B",
"N  c #EB3A20",
"B  c #E63725",
"V  c #F73727",
"C  c #F23C34",
"Z  c #914D0D",
"A  c #B8581C",
"S  c #BE4F07",
"D  c #99731A",
"F  c #9E660F",
"G  c #B46708",
"H  c #AA6C1C",
"J  c #BA651A",
"K  c #AA7718",
"L  c #B67B1D",
"P  c #A9680A",
"I  c #99472A",
"U  c #885B24",
"Y  c #994B37",
"T  c #865833",
"R  c #8C4E2A",
"E  c #B5552A",
"W  c #AE493A",
"Q  c #B74A36",
"!  c #A95737",
"~  c #BB5635",
"^  c #BC492E",
"/  c #876529",
"(  c #8A6933",
")  c #946835",
"_  c #8E753A",
"`  c #987939",
"'  c #977023",
"]  c #A66B2B",
"[  c #B76623",
"{  c #AD7523",
"}  c #AB7C24",
"|  c #A7782A",
" . c #B47625",
".. c #BC7323",
"X. c #B37C23",
"o. c #B7762C",
"O. c #BF6B36",
"+. c #A47634",
"@. c #AC7C33",
"#. c #A37E3D",
"$. c #A9763C",
"%. c #B67737",
"&. c #DA450E",
"*. c #CA4815",
"=. c #D24618",
"-. c #DC431B",
";. c #DD4B1C",
":. c #D94918",
">. c #C95C19",
",. c #D85616",
"<. c #C94D0D",
"1. c #ED4A1B",
"2. c #E6441A",
"3. c #F8491F",
"4. c #E1541F",
"5. c #D0610F",
"6. c #C96618",
"7. c #D56418",
"8. c #C87817",
"9. c #DB4D21",
"0. c #DA412D",
"q. c #DF4422",
"w. c #C85925",
"e. c #D45321",
"r. c #D95928",
"t. c #CA4937",
"y. c #DA4438",
"u. c #CD5538",
"i. c #D65737",
"p. c #EC4424",
"a. c #E84B28",
"s. c #F44C23",
"d. c #F94A2B",
"f. c #E55527",
"g. c #F65929",
"h. c #E74A37",
"j. c #F44C35",
"k. c #F6483F",
"l. c #E15738",
"z. c #F95839",
"x. c #C36B25",
"c. c #CA662A",
"v. c #D66A29",
"b. c #C57629",
"n. c #D17A28",
"m. c #C66A36",
"M. c #C87733",
"N. c #E07F30",
"B. c #EA652B",
"V. c #B75747",
"C. c #A45544",
"Z. c #98794B",
"A. c #957451",
"S. c #A1794C",
"D. c #B67845",
"F. c #AE6B46",
"G. c #C14A46",
"H. c #D54D49",
"J. c #C35642",
"K. c #D65447",
"L. c #E64E43",
"P. c #C56147",
"I. c #D97546",
"U. c #FF7F4E",
"Y. c #FC714F",
"T. c #AB8419",
"R. c #B38316",
"E. c #BA821D",
"W. c #9A8338",
"Q. c #B48223",
"!. c #BB8627",
"~. c #AA8937",
"^. c #B98739",
"/. c #AE842E",
"(. c #C68B2B",
"). c #C7872A",
"_. c #D58426",
"`. c #C59428",
"'. c #CA8C37",
"]. c #CA9738",
"[. c #DA9935",
"{. c #DC982D",
"}. c #E79839",
"|. c #ED9139",
" X c #D8A438",
".X c #E9A63D",
"XX c #998349",
"oX c #AA8348",
"OX c #B5894A",
"+X c #B99558",
"@X c #B1904D",
"#X c #948869",
"$X c #BC9F77",
"%X c #C48A42",
"&X c #C49445",
"*X c #DB9B47",
"=X c #C89858",
"-X c #D69B52",
";X c #F18D45",
":X c #D7A347",
">X c #D7AE45",
",X c #E7AA44",
"<X c #F7AA49",
"1X c #E9B84B",
"2X c #FDB44D",
"3X c #F6B849",
"4X c #FAAB54",
"5X c #EBB455",
"6X c #EBB55A",
"7X c #E5BA5C",
"8X c #F4B356",
"9X c #FEB453",
"0X c #FFBB54",
"qX c #FFB65B",
"wX c #F3BC5C",
"eX c #FEBD5B",
"rX c #F1BA56",
"tX c #E1A252",
"yX c #FF956F",
"uX c #DABC67",
"iX c #C8AB74",
"pX c #DBB775",
"aX c #D2AC6E",
"sX c #FCAC6A",
"dX c #E8B765",
"fX c #F4BA64",
"gX c #F2B175",
"hX c #FFC04D",
"jX c #FCC156",
"kX c #FBC45B",
"lX c #F5C55A",
"zX c #DFC063",
"xX c #E9C56F",
"cX c #FAC667",
"vX c #FFD56B",
"bX c #FBC675",
"nX c #DDB883",
"mX c #FBCB85",
"MX c #EFC796",
/* pixels */
"                                                                                                    ",
"                                                                                                    ",
"                                                                                                    ",
"                                                                                                    ",
"                                                                                                    ",
"                                                                                                    ",
"                                                                                                    ",
"                                                                                                    ",
"                                                                  5 , 1 1 < 0 4                     ",
"                                          > > & - - & & - - 5   * e iXuXzXzXuXiX*                   ",
"                                        Y a a s i p i p : 9 - * = 8 mX7XzXlXxXiX=                   ",
"                                      i G.H.H.u.u.t.K.J.V.C.9 ; + R mXrX.XhXzX+X=                   ",
"                                    Y g L.k.j.j.a.a.j.h.L.t.u p p I sX9XhX3XcX@Xo                   ",
"                                  ; V.H.h.d.x 1.2.1.3.1.z.l.^ J.V.~ x._.2X0XbXS.o                   ",
"                                  , F.u.l.B.,.7.5.7.,.4.-.r.I.P.~ ~ c.n.9XcXbX$.o                   ",
"                                  1 D.O.v.7.6._.9X2X9X;XB.;XsXI.u E c.n._.n.%X/ o                   ",
"                                ) { -X-XL n.}.(.jXjXeX.X8.|.eX'.3 Z ).(.Q.Q.~.0 o                   ",
"                                +.'.cX5XE.`.wXvXkX1XkX.XG {.vX1XfX].K K Q./.@X8                     ",
"                                @.).9X,XR.!. X.XkX<XeX,X).].1XwXcX>XL Q.^.} ~.1                     ",
"                                @.(.fX,XR.R.T.`.0X2XqX8XwX:XX.6X5XkXrXwXfX@X@X0                     ",
"                                @.). X[.`.`.`. X2X0XqX3XfX:XD :X1XkXwXfXdXOXS.7                     ",
"                                oX| } ].cXcXjXjX2X2XeX[.R.E.K K !.E.!.&XOXT 7                       ",
"                                  2 2 @XxX7XqXeX0X2X3X{.8.8.).8.E.K /.$.) 7 =                       ",
"                                    . W.bXdXqXqX2XjX1X3XjX9X9XeX6X&X#.1 7 -                         ",
"                          Z.W.W.( _ / #.-X*XN.<X<X.X1X1X1X<X<X8X7XoX_ 7 X 6                         ",
"                        ` W.~./ oXoX+.+.b.>.<.>.8.E.T.T.K P G n.OX,     * *                         ",
"                    ) @.+.' D ~.@.@.o.o.x.6.5.6.6.n.Q.T./.o.A m.F.1     5 w                         ",
"                @X@X-XOX} } D /. .K ....J x.v.,.<.v.b.[ o.M.r.i.Y 9     6 #Xr                       ",
"                nXpXgX*XF { &X| X.L L L H L v.<.:.2.v.w.e.r.z.z.W %     q #Xr                       ",
"                aXdXwX8X'. .' o.x.A J  .} b.v.9.2.j j =.=.h j M Q % @ # 8 XXq                       ",
"                pXfX8XfXbX%X@ u f.:.A [ [ E e.-.p.z.s.:.4.,.&.z.W $ t 3 / XXq                       ",
"                  $.fXtXM.o.# E p.1.;.c.c.w.9.a.s.yXyX2.&.&.g.gXU.u.~ %.%.#.2                       ",
"                    MX=X  Z X.A -.p.f.-.e.9.2.2.d.Y.z.3.3.1.g.;Xz.;.v.c.%.oX1                       ",
"                      ( U o. .J =.h h h x c c n m n n m 2.v m 3.3.2.e.m.%.S.                        ",
"                      8 $.] H [ >.;.x c V l l l b N n v p.V N x q.*.c.O.S.Z.                        ",
"                      S.` ] %.[ e.2.x n b l l V z k B B 0.y.h.y.u.~ m.D.oXZ.                        ",
"                    A.S.) F.D.A h m m v v N V V C B C H.f d I I I I Y (                             ",
"                              ! q.c N N M 0.M M L.M H.G.s                                           ",
"                              ! t.0.y.M M y.g s y :                                                 ",
"                                i d d d g C.i                                                       ",
"                                                                                                    ",
"                                                                                                    ",
"                                                                                                    ",
"                                                                                                    ",
"                                                                                                    ",
"                                                                                                    ",
"                                                                                                    ",
"                                                                                                    ",
"                                                                                                    ",
"                                                                                                    ",
"                                                                                                    ",
"                                                                                                    ",
"                                                                                                    ",
"                                                                                                    "
};
